<svg viewBox="0 -59 512.00103 512" xmlns="http://www.w3.org/2000/svg" xmlns:xlink="http://www.w3.org/1999/xlink"><linearGradient id="a"><stop offset="0" stop-color="#827a74"/><stop offset="1" stop-color="#605b55"/></linearGradient><linearGradient id="b" gradientUnits="userSpaceOnUse" x1="91.1358576" x2="157.31326008" xlink:href="#a" y1="74.07960464" y2="331.82602544"/><linearGradient id="c"><stop offset="0" stop-color="#acfcd9"/><stop offset="1" stop-color="#53d6be"/></linearGradient><linearGradient id="d" gradientTransform="matrix(0 1.00392 1.00392 0 1284.102 150.856)" gradientUnits="userSpaceOnUse" x1="-73.441" x2="-52.677" xlink:href="#c" y1="-1058.524" y2="-1037.76"/><linearGradient id="e"><stop offset="0" stop-color="#53d6be" stop-opacity="0"/><stop offset=".2513" stop-color="#51b4a7" stop-opacity=".25098"/><stop offset=".5767" stop-color="#508d8e" stop-opacity=".576471"/><stop offset=".8378" stop-color="#4e767f" stop-opacity=".839216"/><stop offset="1" stop-color="#4e6d79"/></linearGradient><linearGradient id="f" gradientTransform="matrix(0 1.00392 -1.00392 0 313.582 150.856)" gradientUnits="userSpaceOnUse" x1="-60.705" x2="-70.789" xlink:href="#e" y1="90.182" y2="69.364"/><linearGradient id="g" gradientTransform="matrix(0 1.00392 1.00392 0 1284.102 150.856)" gradientUnits="userSpaceOnUse" x1="-77.932" x2="-45.543" xlink:href="#c" y1="-1046.53" y2="-1014.142"/><linearGradient id="h" gradientTransform="matrix(0 1.00392 -1.00392 0 313.582 150.856)" gradientUnits="userSpaceOnUse" x1="-58.835" x2="-74.563" xlink:href="#e" y1="77.656" y2="45.184"/><linearGradient id="i" gradientTransform="matrix(0 1.00392 -1.00392 0 313.582 150.856)" gradientUnits="userSpaceOnUse" x1="-82.398" x2="6.468" xlink:href="#c" y1="15.441" y2="15.441"/><linearGradient id="j" gradientTransform="matrix(0 1.00392 -1.00392 0 313.582 150.856)" gradientUnits="userSpaceOnUse" x1="-53.979" x2="-86.567" xlink:href="#e" y1="13.919" y2="-109.54"/><linearGradient id="k"><stop offset="0" stop-color="#f2f2f2"/><stop offset="1" stop-color="#c3c3c3"/></linearGradient><linearGradient id="l" gradientTransform="matrix(0 1.00392 -1.00392 0 313.582 150.856)" gradientUnits="userSpaceOnUse" x1="-106.549" x2="-85.985" xlink:href="#k" y1="-66.049" y2="-66.049"/><linearGradient id="m" gradientTransform="matrix(0 1.00392 -1.00392 0 313.582 150.856)" gradientUnits="userSpaceOnUse" x1="-42.456" x2="-21.892" xlink:href="#k" y1="-66.049" y2="-66.049"/><linearGradient id="n" gradientTransform="matrix(0 1.00392 -1.00392 0 313.582 150.856)" gradientUnits="userSpaceOnUse" x1="-76.282" x2="-16.041" xlink:href="#c" y1="-47.917" y2="12.324"/><linearGradient id="o" gradientTransform="matrix(0 1.00392 -1.00392 0 313.582 150.856)" gradientUnits="userSpaceOnUse" x1="-65.42" x2="-65.42" xlink:href="#e" y1="40.776" y2="91.912"/><linearGradient id="p"><stop offset="0" stop-color="#fff9b4"/><stop offset="1" stop-color="#fff465"/></linearGradient><linearGradient id="q" gradientTransform="matrix(1.00392 .00783 -.00783 1.00392 739.492 -378.734)" gradientUnits="userSpaceOnUse" x1="-291.637" x2="-253.951" xlink:href="#p" y1="493.262" y2="530.948"/><linearGradient id="r" gradientTransform="matrix(1.00392 .00783 -.00783 1.00392 739.492 -378.734)" gradientUnits="userSpaceOnUse" x1="-299.263" x2="-277.847" xlink:href="#p" y1="403.23" y2="424.646"/><linearGradient id="s"><stop offset="0" stop-color="#ffb92d"/><stop offset="1" stop-color="#f59500"/></linearGradient><linearGradient id="t" gradientUnits="userSpaceOnUse" x1="269.351736" x2="293.72490576" xlink:href="#s" y1="278.38736384" y2="395.68236488"/><linearGradient id="u"><stop offset="0" stop-color="#be3f45" stop-opacity="0"/><stop offset="1" stop-color="#be3f45"/></linearGradient><linearGradient id="v" gradientUnits="userSpaceOnUse" x1="205.71525504" x2="102.450036" xlink:href="#u" y1="272.66903552" y2="272.66903552"/><linearGradient id="w" gradientUnits="userSpaceOnUse" x1="298.45236504" x2="101.27946528" xlink:href="#u" y1="272.66903552" y2="272.66903552"/><linearGradient id="x" gradientUnits="userSpaceOnUse" x1="276.13020384" x2="284.84623728" xlink:href="#u" y1="298.51696376" y2="450.1761464"/><linearGradient id="y" gradientUnits="userSpaceOnUse" x1="481.05236208" x2="488.02458648" xlink:href="#p" y1="299.25384104" y2="324.2042648"/><linearGradient id="z" gradientUnits="userSpaceOnUse" x1="475.90727208" x2="475.90727208" xlink:href="#k" y1="331.56099056" y2="359.08646912"/><linearGradient id="A" gradientUnits="userSpaceOnUse" x1="59.88784368" x2="66.86006808" xlink:href="#p" y1="295.11367496" y2="322.2666992"/><linearGradient id="B" gradientUnits="userSpaceOnUse" x1="83.0091252" x2="83.0091252" xlink:href="#k" y1="331.56099056" y2="359.08646912"/><linearGradient id="C" gradientUnits="userSpaceOnUse" x1="261.1898664" x2="261.1898664" xlink:href="#k" y1="339.56022512" y2="358.92082232"/><linearGradient id="D" gradientUnits="userSpaceOnUse" x1="440.2640964" x2="361.5768468" xlink:href="#u" y1="260.42321936" y2="418.31774912"/><linearGradient id="E" gradientUnits="userSpaceOnUse" x1="155.15282424" x2="165.55845504" xlink:href="#a" y1="229.24146416" y2="269.56391096"/><linearGradient id="F" gradientUnits="userSpaceOnUse" x1="217.398876" x2="232.57011504" xlink:href="#a" y1="215.55602672" y2="274.34156624"/><linearGradient id="G" gradientUnits="userSpaceOnUse" x1="305.67255768" x2="322.19406912" xlink:href="#a" y1="214.79103968" y2="278.81101808"/><linearGradient id="H" gradientUnits="userSpaceOnUse" x1="82.50314952" x2="85.29203928" xlink:href="#u" y1="248.63719856" y2="297.15564824"/><linearGradient id="I" gradientUnits="userSpaceOnUse" x1="283.16366736" x2="283.16366736" xlink:href="#s" y1="283.25135624" y2="269.32798976"/><linearGradient id="J" gradientUnits="userSpaceOnUse" x1="289.1590776" x2="280.03946832" xlink:href="#u" y1="285.3575804" y2="265.53216824"/><linearGradient id="K" gradientTransform="matrix(-1.00392 0 0 -1.00392 515.514 466.612)" gradientUnits="userSpaceOnUse" x1="231.442" x2="231.442" xlink:href="#a" y1="190.489" y2="182.851"/><linearGradient id="L" gradientUnits="userSpaceOnUse" x1="201.62126928" x2="201.62126928" xlink:href="#s" y1="283.25135624" y2="269.32798976"/><linearGradient id="M" gradientUnits="userSpaceOnUse" x1="207.61667952" x2="198.49707024" xlink:href="#u" y1="285.3575804" y2="265.53216824"/><linearGradient id="N" gradientTransform="matrix(-1.00392 0 0 -1.00392 515.514 466.612)" gradientUnits="userSpaceOnUse" x1="312.666" x2="312.666" xlink:href="#a" y1="190.489" y2="182.851"/><linearGradient id="O" gradientUnits="userSpaceOnUse" x1="115.42670592" x2="151.42326144" xlink:href="#a" y1="309.77994224" y2="393.986744"/><linearGradient id="P" gradientTransform="matrix(-1.00392 0 0 -1.00392 269.051 599.464)" gradientUnits="userSpaceOnUse" x1="123.832" x2="147.601" xlink:href="#a" y1="220.262" y2="275.864"/><linearGradient id="Q"><stop offset="0" stop-color="#605b55" stop-opacity="0"/><stop offset="1" stop-color="#4c4843"/></linearGradient><linearGradient id="R" gradientUnits="userSpaceOnUse" x1="162.81775344" x2="120.98340312" xlink:href="#Q" y1="380.7751568" y2="338.94080648"/><linearGradient id="S" gradientUnits="userSpaceOnUse" x1="125.55927048" x2="140.8600152" xlink:href="#k" y1="333.48349736" y2="369.27625712"/><linearGradient id="T" gradientUnits="userSpaceOnUse" x1="373.1369856" x2="409.13354112" xlink:href="#a" y1="309.77994224" y2="393.986744"/><linearGradient id="U" gradientTransform="matrix(-1.00392 0 0 -1.00392 269.051 599.464)" gradientUnits="userSpaceOnUse" x1="-132.872" x2="-109.103" xlink:href="#a" y1="220.262" y2="275.864"/><linearGradient id="V" gradientUnits="userSpaceOnUse" x1="420.52803312" x2="378.6936828" xlink:href="#Q" y1="380.7751568" y2="338.94080648"/><linearGradient id="W" gradientUnits="userSpaceOnUse" x1="383.26955016" x2="398.57029488" xlink:href="#k" y1="333.48349736" y2="369.27625712"/><linearGradient id="X" gradientUnits="userSpaceOnUse" x1="378.8944668" x2="329.91019824" xlink:href="#u" y1="269.90323592" y2="246.05310848"/><linearGradient id="Y" gradientUnits="userSpaceOnUse" x1="356.30727072" x2="370.06699824" xlink:href="#s" y1="248.94740984" y2="265.09245128"/><path d="m68.757812 354.5625h-14.417968c-29.964844 0-54.339844-24.375-54.339844-54.335938v-114.785156c0-62.519531 50.863281-113.382812 113.382812-113.382812h128.203126v26.242187h-128.203126c-48.046874 0-87.140624 39.09375-87.140624 87.140625v114.78125c0 15.492188 12.605468 28.097656 28.097656 28.097656h14.417968zm0 0" fill="url(#b)"/><path d="m233.429688 101.726562v-33.089843h-3.871094c-5.371094 0-9.726563 4.351562-9.726563 9.722656v13.640625c0 5.371094 4.355469 9.726562 9.726563 9.726562zm0 0" fill="url(#d)"/><path d="m232.203125 68.636719-12.371094 12.371093v10.992188c0 5.371094 4.355469 9.726562 9.726563 9.726562h3.871094v-33.089843zm0 0" fill="url(#f)"/><path d="m252.191406 110.988281v-51.617187h-6.042968c-8.378907 0-15.167969 6.792968-15.167969 15.171875v21.277343c0 8.375 6.789062 15.167969 15.167969 15.167969zm0 0" fill="url(#g)"/><path d="m246.148438 110.988281h6.042968v-51.617187h-5.84375l-.046875.070312-15.320312 15.320313v21.058593c0 8.375 6.789062 15.167969 15.167969 15.167969zm0 0" fill="url(#h)"/><path d="m245.6875 103.792969v-37.222657c0-25.257812 20.472656-45.734374 45.730469-45.734374h59.058593v128.6875h-59.058593c-25.257813 0-45.730469-20.472657-45.730469-45.730469zm0 0" fill="url(#i)"/><path d="m350.476562 20.835938h-14.707031l-89.597656 89.597656c3.21875 22.109375 22.246094 39.089844 45.25 39.089844h59.054687zm0 0" fill="url(#j)"/><path d="m344.347656 53.007812c0-5.078124 4.117188-9.191406 9.191406-9.191406h52.703126c5.074218 0 9.191406 4.113282 9.191406 9.191406 0 5.078126-4.117188 9.191407-9.191406 9.191407h-52.703126c-5.074218 0-9.191406-4.113281-9.191406-9.191407zm0 0" fill="url(#l)"/><path d="m344.347656 117.351562c0-5.074218 4.117188-9.191406 9.191406-9.191406h52.703126c5.074218 0 9.191406 4.117188 9.191406 9.191406 0 5.078126-4.117188 9.191407-9.191406 9.191407h-52.703126c-5.074218 0-9.191406-4.113281-9.191406-9.191407zm0 0" fill="url(#m)"/><path d="m333.316406 140.65625v-110.949219c0-8.621093 6.988282-15.613281 15.609375-15.613281h3.710938c8.621093 0 15.609375 6.988281 15.609375 15.613281v110.949219c0 8.621094-6.988282 15.609375-15.609375 15.609375h-3.710938c-8.621093 0-15.609375-6.988281-15.609375-15.609375zm0 0" fill="url(#n)"/><path d="m292.257812 20.835938h-.835937c-25.257813 0-45.734375 20.476562-45.734375 45.734374v37.222657c0 25.257812 20.472656 45.734375 45.734375 45.734375h.835937zm0 0" fill="url(#o)"/><path d="m484.664062 123.378906-13.835937-.109375c-2.460937-.019531-4.328125-2.226562-3.933594-4.65625l6.695313-41.527343c.695312-4.304688-5.003906-6.480469-7.351563-2.804688l-36.472656 57.105469c-1.699219 2.664062.195313 6.15625 3.355469 6.183593l13.835937.105469c2.460938.019531 4.324219 2.226563 3.933594 4.65625l-6.695313 41.527344c-.695312 4.304687 5.003907 6.476563 7.351563 2.804687l36.472656-57.105468c1.699219-2.664063-.195312-6.15625-3.355469-6.179688zm0 0" fill="url(#q)"/><path d="m459.660156 28.960938-7.863281-.0625c-1.398437-.007813-2.457031-1.265626-2.234375-2.644532l3.804688-23.597656c.394531-2.449219-2.84375-3.683594-4.179688-1.59375l-20.726562 32.453125c-.964844 1.511719.113281 3.5 1.90625 3.511719l7.863281.0625c1.398437.011718 2.460937 1.265625 2.238281 2.644531l-3.804688 23.597656c-.394531 2.449219 2.84375 3.683594 4.175782 1.59375l20.726562-32.453125c.964844-1.511718-.109375-3.496094-1.90625-3.511718zm0 0" fill="url(#r)"/><path d="m501.761719 350.769531v-17.324219c0-32.800781-19.128907-61.914062-47.480469-72.253906-17.847656-6.507812-42.367188-11.066406-76.050781-11.066406 0 0-35.71875-55.558594-102.691407-55.558594-66.972656 0-56.558593 0-84.835937 0s-77.390625 49.023438-77.390625 49.023438-25.175781 0-44.527344 0c-19.347656 0-16.371094 28.742187-16.371094 51.621094 0 22.875 4.339844 55.558593 56.433594 55.558593zm0 0" fill="url(#t)"/><path d="m184.660156 201.28125v142.773438c0 3.710937 2.738282 6.714843 6.117188 6.714843h69.003906v-156.203125c-49.6875 0-43.253906 0-69.078125 0-.015625 0-.035156 0-.054687 0-3.328126.007813-5.988282 3.0625-5.988282 6.714844zm0 0" fill="url(#v)"/><path d="m454.28125 261.191406c-17.847656-6.503906-42.367188-11.066406-76.050781-11.066406 0 0-35.71875-55.558594-102.691407-55.558594h-6.464843c-3.707031 0-6.714844 3.300782-6.714844 7.375v138.242188c0 5.847656 4.320313 10.585937 9.644531 10.585937h229.757813v-17.324219c0-32.800781-19.128907-61.914062-47.480469-72.253906zm0 0" fill="url(#w)"/><path d="m52.414062 295.210938c0 22.878906 4.34375 55.558593 56.433594 55.558593h392.914063v-17.324219c0-14.65625-3.828125-28.574218-10.585938-40.414062h-438.769531c.007812.734375.007812 1.460938.007812 2.179688zm0 0" fill="url(#x)"/><path d="m491.175781 293.035156h-5.3125c-7.753906 0-14.042969 6.285156-14.042969 14.042969v8.511719c0 7.757812 6.289063 14.042968 14.042969 14.042968h15.800781c-.601562-13.25-4.320312-25.792968-10.488281-36.597656zm0 0" fill="url(#y)"/><path d="m500.171875 358.53125h-48.527344c-6.53125 0-11.828125-5.296875-11.828125-11.828125v-10.46875c0-6.53125 5.292969-11.828125 11.828125-11.828125h48.527344c6.53125 0 11.828125 5.292969 11.828125 11.828125v10.46875c0 6.53125-5.296875 11.828125-11.828125 11.828125zm0 0" fill="url(#z)"/><path d="m63.804688 291.199219h-11.414063c.015625 1.351562.023437 2.691406.023437 4.011719 0 10.199218.867188 22.347656 6.441407 32.679687h12.554687v-29.085937c0-4.199219-3.40625-7.605469-7.605468-7.605469zm0 0" fill="url(#A)"/><path d="m111.675781 358.53125h-57.332031c-6.535156 0-11.832031-5.296875-11.832031-11.828125v-10.46875c0-6.53125 5.296875-11.828125 11.832031-11.828125h57.332031c6.53125 0 11.828125 5.292969 11.828125 11.828125v10.46875c0 6.53125-5.296875 11.828125-11.828125 11.828125zm0 0" fill="url(#B)"/><path d="m332.296875 358.53125h-142.214844c-4.59375 0-8.320312-3.726562-8.320312-8.320312v-7.363282c0-4.59375 3.726562-8.320312 8.320312-8.320312h142.214844c4.59375 0 8.320313 3.726562 8.320313 8.320312v7.363282c0 4.59375-3.726563 8.320312-8.320313 8.320312zm0 0" fill="url(#C)"/><path d="m491.175781 293.035156c-8.363281-14.65625-21.214843-26.125-36.894531-31.84375-17.847656-6.503906-42.367188-11.066406-76.050781-11.066406v14.015625c0 15.957031 11.78125 28.890625 26.316406 28.890625h86.628906zm0 0" fill="url(#D)"/><path d="m136.257812 244.773438c9.742188-10.027344 22.980469-22.464844 35.710938-30.601563 3.628906-2.316406 8.179688.613281 8.179688 5.222656v35.730469c0 3.316406-2.449219 6.007812-5.472657 6.007812h-32.542969c-7.808593 0-11.578124-10.492187-5.875-16.359374zm0 0" fill="url(#E)"/><path d="m254.671875 210.949219v44.8125c0 2.964843-2.191406 5.371093-4.894531 5.371093h-55.132813c-3.019531 0-5.46875-2.691406-5.46875-6.007812v-43.539062c0-3.265626 2.367188-6 5.339844-6.011719h.050781 55.210938c2.703125 0 4.894531 2.40625 4.894531 5.375zm0 0" fill="url(#F)"/><path d="m359.339844 244.988281c-15.160156-16.40625-43.699219-39.414062-84.488282-39.414062h-.582031c-2.699219 0-4.890625 2.40625-4.890625 5.371093v44.816407c0 2.96875 2.191406 5.375 4.890625 5.375h78.992188c7.675781-.003907 11.546875-10.234375 6.078125-16.148438zm0 0" fill="url(#G)"/><path d="m52.53125 268.265625h51.253906c5.261719 0 9.527344-4.683594 9.527344-10.460937v-14.214844s-25.179688 0-44.527344 0c-11.929687 0-15.367187 10.933594-16.253906 24.675781zm0 0" fill="url(#H)"/><path d="m289.824219 284.589844h-13.320313c-3.378906 0-6.121094-2.742188-6.121094-6.125v-.585938c0-3.378906 2.738282-6.121094 6.121094-6.121094h13.320313c3.378906 0 6.121093 2.738282 6.121093 6.121094v.585938c0 3.382812-2.742187 6.125-6.121093 6.125zm0 0" fill="url(#I)"/><path d="m293.261719 275.800781c-.585938-.707031-1.429688-1.160156-2.371094-1.160156h-15.453125c-1.777344 0-3.21875 1.582031-3.21875 3.53125 0 1.035156.414062 1.957031 1.058594 2.605469l10.660156 11.703125c.585938.707031 1.425781 1.164062 2.371094 1.164062h15.453125c1.777343 0 3.21875-1.582031 3.21875-3.535156 0-1.035156-.414063-1.957031-1.058594-2.605469zm0 0" fill="url(#J)"/><path d="m275.589844 274.640625h15.148437c1.859375 0 3.371094 1.507813 3.371094 3.371094v.324219c0 1.859374-1.511719 3.371093-3.371094 3.371093h-15.148437c-1.859375 0-3.371094-1.511719-3.371094-3.371093v-.324219c0-1.863281 1.511719-3.371094 3.371094-3.371094zm0 0" fill="url(#K)"/><path d="m208.28125 284.589844h-13.320312c-3.378907 0-6.121094-2.742188-6.121094-6.125v-.585938c0-3.378906 2.742187-6.121094 6.121094-6.121094h13.320312c3.378906 0 6.121094 2.738282 6.121094 6.121094v.585938c0 3.382812-2.742188 6.125-6.121094 6.125zm0 0" fill="url(#L)"/><path d="m211.71875 275.800781c-.585938-.707031-1.425781-1.160156-2.371094-1.160156h-15.453125c-1.777343 0-3.21875 1.582031-3.21875 3.53125 0 1.035156.414063 1.957031 1.058594 2.605469l10.660156 11.703125c.585938.707031 1.425781 1.164062 2.371094 1.164062h15.453125c1.777344 0 3.21875-1.582031 3.21875-3.535156 0-1.035156-.414062-1.957031-1.058594-2.605469zm0 0" fill="url(#M)"/><path d="m194.050781 274.640625h15.144531c1.859376 0 3.371094 1.507813 3.371094 3.371094v.324219c0 1.859374-1.511718 3.371093-3.371094 3.371093h-15.144531c-1.863281 0-3.375-1.511719-3.375-3.371093v-.324219c0-1.863281 1.511719-3.371094 3.375-3.371094zm0 0" fill="url(#N)"/><path d="m177.082031 351.007812c0 24.320313-19.714843 44.03125-44.03125 44.03125-24.316406 0-44.03125-19.710937-44.03125-44.03125 0-24.316406 19.714844-44.03125 44.03125-44.03125 24.316407 0 44.03125 19.714844 44.03125 44.03125zm0 0" fill="url(#O)"/><path d="m162.238281 351.007812c0 16.121094-13.066406 29.1875-29.1875 29.1875-16.121093 0-29.1875-13.066406-29.1875-29.1875 0-16.121093 13.066407-29.1875 29.1875-29.1875 16.121094 0 29.1875 13.066407 29.1875 29.1875zm0 0" fill="url(#P)"/><path d="m174.460938 365.996094-27.746094-27.746094c-3.417969-3.65625-8.265625-5.957031-13.664063-5.957031-10.335937 0-18.714843 8.378906-18.714843 18.714843 0 5.398438 2.296874 10.25 5.953124 13.664063l27.75 27.75c12.257813-4.441406 21.984376-14.167969 26.421876-26.425781zm0 0" fill="url(#R)"/><path d="m151.765625 351.007812c0 10.335938-8.378906 18.714844-18.714844 18.714844-10.335937 0-18.714843-8.378906-18.714843-18.714844 0-10.335937 8.378906-18.714843 18.714843-18.714843 10.335938 0 18.714844 8.378906 18.714844 18.714843zm0 0" fill="url(#S)"/><path d="m434.792969 351.007812c0 24.320313-19.714844 44.03125-44.03125 44.03125-24.320313 0-44.03125-19.710937-44.03125-44.03125 0-24.316406 19.710937-44.03125 44.03125-44.03125 24.316406 0 44.03125 19.714844 44.03125 44.03125zm0 0" fill="url(#T)"/><path d="m419.949219 351.007812c0 16.121094-13.066407 29.1875-29.1875 29.1875-16.121094 0-29.1875-13.066406-29.1875-29.1875 0-16.121093 13.066406-29.1875 29.1875-29.1875 16.121093 0 29.1875 13.066407 29.1875 29.1875zm0 0" fill="url(#U)"/><path d="m432.171875 365.996094-27.746094-27.746094c-3.414062-3.65625-8.265625-5.957031-13.664062-5.957031-10.335938 0-18.714844 8.378906-18.714844 18.714843 0 5.398438 2.296875 10.25 5.953125 13.664063l27.746094 27.75c12.261718-4.441406 21.988281-14.167969 26.425781-26.425781zm0 0" fill="url(#V)"/><path d="m409.476562 351.007812c0 10.335938-8.378906 18.714844-18.714843 18.714844-10.335938 0-18.714844-8.378906-18.714844-18.714844 0-10.335937 8.378906-18.714843 18.714844-18.714843 10.335937 0 18.714843 8.378906 18.714843 18.714843zm0 0" fill="url(#W)"/><path d="m367.554688 244.132812c-2.277344-2.417968-5.5-3.9375-9.085938-3.9375-2.980469 0-5.394531 2.414063-5.394531 5.394532v15.628906c0 1.625.734375 3.066406 1.871093 4.054688l26.574219 26.578124c.992188 1.136719 2.429688 1.871094 4.054688 1.871094 6.902343 0 12.496093-5.59375 12.496093-12.492187v-1.433594c0-3.585937-1.519531-6.808594-3.9375-9.085937zm0 0" fill="url(#X)"/><path d="m358.46875 266.613281c-2.980469 0-5.394531-2.414062-5.394531-5.394531v-15.628906c0-2.980469 2.414062-5.394532 5.394531-5.394532 6.898438 0 12.492188 5.59375 12.492188 12.492188v1.433594c0 6.902344-5.59375 12.492187-12.492188 12.492187zm0 0" fill="url(#Y)"/></svg>