<svg viewBox="0 -10 511.99601 511" xmlns="http://www.w3.org/2000/svg" xmlns:xlink="http://www.w3.org/1999/xlink"><linearGradient id="a" gradientUnits="userSpaceOnUse" x1="89.38000152" x2="489.47424696" y1="68.22673216" y2="468.3209776"><stop offset="0" stop-color="#62e1fb"/><stop offset="1" stop-color="#00a2f3"/></linearGradient><linearGradient id="b"><stop offset="0" stop-color="#00a2f3" stop-opacity="0"/><stop offset="1" stop-color="#0075cd"/></linearGradient><linearGradient id="c" gradientUnits="userSpaceOnUse" x1="433.37118168" x2="351.92315208" xlink:href="#b" y1="382.27097872" y2="131.23375528"/><linearGradient id="d" gradientUnits="userSpaceOnUse" x1="305.85125544" x2="228.86665416" xlink:href="#b" y1="128.66572792" y2="51.68112664"/><linearGradient id="e"><stop offset="0" stop-color="#cfffb4"/><stop offset="1" stop-color="#8ee388"/></linearGradient><linearGradient id="f" gradientUnits="userSpaceOnUse" x1="330.46636992" x2="569.4936984" xlink:href="#e" y1="144.48248752" y2="383.509816"/><linearGradient id="g" gradientUnits="userSpaceOnUse" x1="31.5331272" x2="154.96308336" xlink:href="#e" y1="239.196316" y2="362.62526824"/><linearGradient id="h" gradientUnits="userSpaceOnUse" x1="232.95361248" x2="374.36076408" xlink:href="#e" y1="413.4467104" y2="554.853862"/><linearGradient id="i" gradientUnits="userSpaceOnUse" x1="240.95686272" x2="283.59133728" xlink:href="#e" y1="63.76932736" y2="106.40380192"/><radialGradient id="j" cx="199.591" cy="240.142" gradientTransform="matrix(1.00272 -.04939 .04939 1.00272 12.502 -77.165)" gradientUnits="userSpaceOnUse" r="345.568"><stop offset=".0013" stop-color="#d5ecf3" stop-opacity="0"/><stop offset=".4242" stop-color="#d3eaf1" stop-opacity=".423529"/><stop offset=".5765" stop-color="#cce4eb" stop-opacity=".576471"/><stop offset=".6851" stop-color="#c1d9e0" stop-opacity=".686275"/><stop offset=".7729" stop-color="#b0c9d1" stop-opacity=".772549"/><stop offset=".8482" stop-color="#9ab4bd" stop-opacity=".847059"/><stop offset=".9147" stop-color="#7e9ba5" stop-opacity=".913725"/><stop offset=".9735" stop-color="#5f7d88" stop-opacity=".972549"/><stop offset="1" stop-color="#4e6d79"/></radialGradient><linearGradient id="k" gradientUnits="userSpaceOnUse" x1="196.24527768" x2="-16.67310336" xlink:href="#b" y1="285.16782064" y2="145.14105904"/><linearGradient id="l"><stop offset="0" stop-color="#f2f2f2"/><stop offset="1" stop-color="#c3c3c3"/></linearGradient><linearGradient id="m" gradientUnits="userSpaceOnUse" x1="0" x2="146.0251836" xlink:href="#l" y1="234.31124128" y2="234.31124128"/><linearGradient id="n" gradientUnits="userSpaceOnUse" x1="153.59976" x2="32.47580808" xlink:href="#l" y1="234.31124128" y2="234.31124128"/><linearGradient id="o" gradientUnits="userSpaceOnUse" x1="29.67788304" x2="116.34730056" y1="234.31124128" y2="234.31124128"><stop offset="0" stop-color="#ff4c54"/><stop offset="1" stop-color="#be3f45"/></linearGradient><linearGradient id="p"><stop offset="0" stop-color="#827a74"/><stop offset="1" stop-color="#605b55"/></linearGradient><linearGradient id="q" gradientUnits="userSpaceOnUse" x1="101.14795176" x2="137.79002784" xlink:href="#p" y1="94.1951308" y2="94.1951308"/><linearGradient id="r" gradientUnits="userSpaceOnUse" x1="101.14795176" x2="137.79002784" xlink:href="#p" y1="134.84184376" y2="134.84184376"/><linearGradient id="s" gradientUnits="userSpaceOnUse" x1="101.14795176" x2="137.79002784" xlink:href="#p" y1="175.48956064" y2="175.48956064"/><linearGradient id="t" gradientUnits="userSpaceOnUse" x1="101.14795176" x2="137.79002784" xlink:href="#p" y1="216.13526968" y2="216.13526968"/><linearGradient id="u" gradientUnits="userSpaceOnUse" x1="101.14795176" x2="137.79002784" xlink:href="#p" y1="256.78198264" y2="256.78198264"/><linearGradient id="v" gradientUnits="userSpaceOnUse" x1="101.14795176" x2="137.79002784" xlink:href="#p" y1="297.4286956" y2="297.4286956"/><linearGradient id="w" gradientUnits="userSpaceOnUse" x1="101.14795176" x2="137.79002784" xlink:href="#p" y1="338.07540856" y2="338.07540856"/><path d="m511.996094 247.40625c0 134.445312-108.992188 243.433594-243.4375 243.433594-134.445313 0-243.4375-108.988282-243.4375-243.433594 0-134.449219 108.992187-243.4375 243.4375-243.4375 134.445312 0 243.4375 108.988281 243.4375 243.4375zm0 0" fill="url(#a)"/><path d="m511.996094 247.402344c0 15.441406-1.4375 30.546875-4.195313 45.191406-3.773437 20.171875-10.054687 39.460938-18.488281 57.542969-13.472656 28.914062-32.472656 54.75-55.644531 76.136719l-105.585938-105.585938c-3.554687-2.050781-6.289062-5.339844-7.609375-9.292969l-53.917968-54.132812c-11.96875-10.207031-19.554688-25.386719-19.554688-42.34375v-40.921875c0-18.40625 6.847656-35.21875 18.152344-48.007813 12.6875-14.398437 31.003906-23.714843 51.519531-24.523437.960937-.035156 1.949219-.058594 2.921875-.058594h44.960938c9.335937 0 16.902343-7.566406 16.902343-16.902344v-3.070312c0-9.339844 7.578125-16.902344 16.914063-16.902344h30.863281c1.261719 1.109375 2.511719 2.234375 3.753906 3.371094 1.179688 1.089844 2.363281 2.1875 3.519531 3.289062.058594.046875.105469.09375.152344.148438 2.433594 2.332031 4.808594 4.707031 7.148438 7.125l.242187.246094c42.085938 43.746093 67.945313 103.1875 67.945313 168.691406zm0 0" fill="url(#c)"/><path d="m507.800781 292.59375c-3.777343 20.167969-10.054687 39.457031-18.488281 57.542969l-224.160156-224.148438-28.324219-28.324219c-6.871094-4.949218-11.34375-13.011718-11.34375-22.117187 0-15.046875 12.199219-27.25 27.25-27.25 9.105469 0 17.167969 4.472656 22.117187 11.34375l41.820313 41.820313zm0 0" fill="url(#d)"/><path d="m511.996094 247.402344c0 26.367187-4.195313 51.761718-11.957032 75.542968h-163.546874c-9.335938 0-16.902344-7.574218-16.902344-16.914062v-18.535156c0-4.667969-1.898438-8.898438-4.957032-11.957032-3.058593-3.054687-7.289062-4.945312-11.957031-4.945312-30.746093 0-55.675781-24.929688-55.675781-55.675781v-40.921875c0-40.09375 32.496094-72.589844 72.59375-72.589844h44.960938c9.335937 0 16.902343-7.566406 16.902343-16.902344v-3.070312c0-9.339844 7.578125-16.902344 16.914063-16.902344h30.863281c50.742187 44.601562 82.761719 110 82.761719 182.871094zm0 0" fill="url(#f)"/><path d="m136.929688 278.527344c0 46.050781-36.839844 83.496094-82.671876 84.445312-18.582031-34.382812-29.136718-73.738281-29.136718-115.570312 0-17.285156 1.796875-34.132813 5.226562-50.398438v-.011718c7.042969-1.910157 14.457032-2.929688 22.117188-2.929688 46.648437 0 84.464844 37.8125 84.464844 84.464844zm0 0" fill="url(#g)"/><path d="m268.558594 490.839844c48.367187 0 93.4375-14.105469 131.328125-38.425782-15.429688-16.675781-37.5-27.113281-62.011719-27.113281-.832031 0-1.664062.011719-2.492188.035157-18.398437.535156-36.648437-4.171876-51.8125-14.605469-13.59375-9.351563-30.0625-14.828125-47.808593-14.828125-40.304688 0-73.988281 28.230468-82.417969 65.992187 34.300781 18.460938 73.53125 28.945313 115.214844 28.945313zm0 0" fill="url(#h)"/><path d="m279.976562 75.542969c0 15.046875-12.199218 27.246093-27.246093 27.246093-15.050781 0-27.246094-12.199218-27.246094-27.246093s12.195313-27.246094 27.246094-27.246094c15.046875 0 27.246093 12.199219 27.246093 27.246094zm0 0" fill="url(#i)"/><path d="m511.996094 247.40625c0 134.445312-108.992188 243.433594-243.4375 243.433594-134.445313 0-243.4375-108.988282-243.4375-243.433594 0-134.449219 108.992187-243.4375 243.4375-243.4375 134.445312 0 243.4375 108.988281 243.4375 243.4375zm0 0" fill="url(#j)"/><path d="m474.582031 377.089844-335.726562-335.726563c-71.882813 45.34375-117.914063 127.066407-113.441407 218.007813 6.609376 134.28125 120.828126 237.785156 255.109376 231.175781 82.382812-4.054687 153.164062-48.617187 194.058593-113.457031zm0 0" fill="url(#k)"/><path d="m73.011719 468.125c-40.324219 0-73.011719-32.6875-73.011719-73.011719v-321.601562c0-40.324219 32.6875-73.015625 73.011719-73.015625s73.011719 32.691406 73.011719 73.015625v321.601562c.003906 40.324219-32.6875 73.011719-73.011719 73.011719zm0 0" fill="url(#m)"/><path d="m73.011719 443.75c-1.261719 0-2.542969-.042969-3.808594-.132812-26.363281-1.84375-47.539063-23.128907-49.257813-49.503907-1.152343-17.722656 6.53125-34.777343 20.558594-45.621093 2.742188-2.121094 4.378906-5.636719 4.378906-9.398438v-286.089844c0-15.511718 12.617188-28.132812 28.128907-28.132812.445312 0 .898437.011718 1.347656.03125 15.019531.707031 26.785156 13.277344 26.785156 28.617187v285.75c0 3.671875 1.71875 7.128907 4.714844 9.484375 12.925781 10.160156 20.335937 25.402344 20.335937 41.816406 0 14.207032-5.53125 27.5625-15.578124 37.605469-10.042969 10.042969-23.398438 15.578125-37.605469 15.578125 0-.003906 0-.003906 0-.003906zm0 0" fill="url(#n)"/><path d="m91.296875 339.269531v-285.75c0-9.847656-7.566406-18.316406-17.398437-18.78125-10.5-.492187-19.167969 7.871094-19.167969 18.265625v286.085938c0 6.675781-2.925781 13.109375-8.207031 17.191406-10.949219 8.46875-17.738282 22.0625-16.75 37.191406 1.394531 21.429688 18.695312 38.824219 40.117187 40.324219 25.34375 1.773437 46.457031-18.261719 46.457031-43.226563 0-13.832031-6.480468-26.144531-16.570312-34.074218-5.304688-4.171875-8.480469-10.480469-8.480469-17.226563zm0 0" fill="url(#o)"/><path d="m128.6875 103.296875h-18.4375c-5.027344 0-9.101562-4.074219-9.101562-9.101563 0-5.027343 4.074218-9.101562 9.101562-9.101562h18.441406c5.027344 0 9.101563 4.074219 9.101563 9.101562-.003907 5.027344-4.078125 9.101563-9.105469 9.101563zm0 0" fill="url(#q)"/><path d="m128.6875 143.945312h-18.4375c-5.027344 0-9.101562-4.074218-9.101562-9.101562s4.074218-9.101562 9.101562-9.101562h18.441406c5.027344 0 9.101563 4.074218 9.101563 9.101562s-4.078125 9.101562-9.105469 9.101562zm0 0" fill="url(#r)"/><path d="m128.6875 184.589844h-18.4375c-5.027344 0-9.101562-4.074219-9.101562-9.101563 0-5.027343 4.074218-9.101562 9.101562-9.101562h18.441406c5.027344 0 9.101563 4.078125 9.101563 9.101562-.003907 5.027344-4.078125 9.101563-9.105469 9.101563zm0 0" fill="url(#s)"/><path d="m128.6875 225.238281h-18.4375c-5.027344 0-9.101562-4.078125-9.101562-9.101562 0-5.027344 4.074218-9.101563 9.101562-9.101563h18.441406c5.027344 0 9.101563 4.074219 9.101563 9.101563 0 5.023437-4.078125 9.101562-9.105469 9.101562zm0 0" fill="url(#t)"/><path d="m128.6875 265.882812h-18.4375c-5.027344 0-9.101562-4.074218-9.101562-9.101562s4.074218-9.101562 9.101562-9.101562h18.441406c5.027344 0 9.101563 4.078124 9.101563 9.101562-.003907 5.027344-4.078125 9.101562-9.105469 9.101562zm0 0" fill="url(#u)"/><path d="m128.6875 306.53125h-18.4375c-5.027344 0-9.101562-4.074219-9.101562-9.101562 0-5.027344 4.074218-9.101563 9.101562-9.101563h18.441406c5.027344 0 9.101563 4.074219 9.101563 9.101563-.003907 5.027343-4.078125 9.101562-9.105469 9.101562zm0 0" fill="url(#v)"/><path d="m128.6875 347.175781h-18.4375c-5.027344 0-9.101562-4.074219-9.101562-9.101562 0-5.027344 4.074218-9.101563 9.101562-9.101563h18.441406c5.027344 0 9.101563 4.078125 9.101563 9.101563-.003907 5.027343-4.078125 9.101562-9.105469 9.101562zm0 0" fill="url(#w)"/></svg>