<svg viewBox="0 -2 512.00048 512" xmlns="http://www.w3.org/2000/svg" xmlns:xlink="http://www.w3.org/1999/xlink"><radialGradient id="a" cx="351.32481576" cy="161.03360368" gradientUnits="userSpaceOnUse" r="152.0537232"><stop offset="0" stop-color="#ffb92d"/><stop offset=".336" stop-color="#fec259" stop-opacity=".662745"/><stop offset=".782" stop-color="#fccd8d" stop-opacity=".219608"/><stop offset="1" stop-color="#fbd1a2" stop-opacity="0"/></radialGradient><radialGradient id="b" cx="325.87845552" cy="118.37503504" gradientUnits="userSpaceOnUse" r="161.42230464"><stop offset="0" stop-color="#feffb3"/><stop offset=".2201" stop-color="#fefdb0"/><stop offset=".3901" stop-color="#fef8a6"/><stop offset=".5433" stop-color="#fef096"/><stop offset=".6866" stop-color="#fee47e"/><stop offset=".8232" stop-color="#ffd460"/><stop offset=".9528" stop-color="#ffc13c"/><stop offset="1" stop-color="#ffb92d"/></radialGradient><linearGradient id="c"><stop offset="0" stop-color="#827a74"/><stop offset="1" stop-color="#605b55"/></linearGradient><linearGradient id="d" gradientUnits="userSpaceOnUse" x1="287.74254648" x2="300.50538144" xlink:href="#c" y1="362.00132104" y2="362.00132104"/><linearGradient id="e" gradientUnits="userSpaceOnUse" x1="258.00543216" x2="300.18111528" xlink:href="#c" y1="308.84978056" y2="308.84978056"/><linearGradient id="f" gradientUnits="userSpaceOnUse" x1="236.46733248" x2="299.02961904" xlink:href="#c" y1="372.37783816" y2="372.37783816"/><linearGradient id="g" gradientUnits="userSpaceOnUse" x1="331.37792928" x2="289.20224616" xlink:href="#c" y1="283.32511456" y2="283.32511456"/><linearGradient id="h" gradientUnits="userSpaceOnUse" x1="352.91502504" x2="290.35273848" xlink:href="#c" y1="346.85317216" y2="346.85317216"/><linearGradient id="i" gradientUnits="userSpaceOnUse" x1="412.11819528" x2="431.95465056" xlink:href="#c" y1="321.44897656" y2="321.44897656"/><linearGradient id="j" gradientUnits="userSpaceOnUse" x1="365.89671456" x2="431.45068272" xlink:href="#c" y1="238.83539584" y2="238.83539584"/><linearGradient id="k" gradientUnits="userSpaceOnUse" x1="332.42100216" x2="429.66169728" xlink:href="#c" y1="337.57795528" y2="337.57795528"/><linearGradient id="l" gradientUnits="userSpaceOnUse" x1="479.94001872" x2="414.38605056" xlink:href="#c" y1="199.16248528" y2="199.16248528"/><linearGradient id="m" gradientUnits="userSpaceOnUse" x1="513.41573112" x2="416.175036" xlink:href="#c" y1="297.90504472" y2="297.90504472"/><linearGradient id="n" gradientUnits="userSpaceOnUse" x1="75.94554408" x2="89.41714656" xlink:href="#c" y1="356.46972184" y2="356.46972184"/><linearGradient id="o" gradientUnits="userSpaceOnUse" x1="44.55497352" x2="89.07480984" xlink:href="#c" y1="300.36464872" y2="300.36464872"/><linearGradient id="p" gradientUnits="userSpaceOnUse" x1="21.8202012" x2="87.86006664" xlink:href="#c" y1="367.42349296" y2="367.42349296"/><linearGradient id="q" gradientUnits="userSpaceOnUse" x1="122.00539368" x2="77.48555736" xlink:href="#c" y1="273.42144376" y2="273.42144376"/><linearGradient id="r" gradientUnits="userSpaceOnUse" x1="144.73916208" x2="78.70030056" xlink:href="#c" y1="340.480288" y2="340.480288"/><linearGradient id="s" gradientUnits="userSpaceOnUse" x1="184.34179824" x2="204.17925744" xlink:href="#c" y1="336.74771344" y2="336.74771344"/><linearGradient id="t" gradientUnits="userSpaceOnUse" x1="138.12031752" x2="203.67428568" xlink:href="#c" y1="254.13513664" y2="254.13513664"/><linearGradient id="u" gradientUnits="userSpaceOnUse" x1="104.64460512" x2="201.88530024" xlink:href="#c" y1="352.87669216" y2="352.87669216"/><linearGradient id="v" gradientUnits="userSpaceOnUse" x1="252.16362168" x2="186.60965352" xlink:href="#c" y1="214.46122216" y2="214.46122216"/><linearGradient id="w" gradientUnits="userSpaceOnUse" x1="285.640338" x2="188.39863896" xlink:href="#c" y1="313.2037816" y2="313.2037816"/><radialGradient id="x" cx="318.49562784" cy="84.41844496" gradientUnits="userSpaceOnUse" r="259.52235528"><stop offset="0" stop-color="#feffb3"/><stop offset="1" stop-color="#feffb3" stop-opacity="0"/></radialGradient><linearGradient id="y" gradientUnits="userSpaceOnUse" x1="186.29542656" x2="29.61764784" xlink:href="#c" y1="545.2197328" y2="388.542958"/><linearGradient id="z"><stop offset="0" stop-color="#605b55" stop-opacity="0"/><stop offset="1" stop-color="#4c4843"/></linearGradient><linearGradient id="A" gradientUnits="userSpaceOnUse" x1="46.42828824" x2="30.78621072" xlink:href="#z" y1="509.49022" y2="459.20185936"/><linearGradient id="B" gradientUnits="userSpaceOnUse" x1="123.47011296" x2="156.41274384" xlink:href="#z" y1="473.7155308" y2="411.7987648"/><linearGradient id="C" gradientUnits="userSpaceOnUse" x1="232.83013032" x2="224.49558648" xlink:href="#z" y1="493.59013504" y2="450.42759856"/><linearGradient id="D" gradientUnits="userSpaceOnUse" x1="139.81393056" x2="139.81393056" xlink:href="#z" y1="486.38801296" y2="509.02540504"/><linearGradient id="E" gradientUnits="userSpaceOnUse" x1="413.34096984" x2="256.66419504" xlink:href="#c" y1="545.2197328" y2="388.542958"/><linearGradient id="F" gradientUnits="userSpaceOnUse" x1="273.47383152" x2="257.83275792" xlink:href="#z" y1="509.49022" y2="459.20185936"/><linearGradient id="G" gradientUnits="userSpaceOnUse" x1="350.51565624" x2="383.45828712" xlink:href="#z" y1="473.7155308" y2="411.7987648"/><linearGradient id="H" gradientUnits="userSpaceOnUse" x1="459.8756736" x2="451.54112976" xlink:href="#z" y1="493.59013504" y2="450.42759856"/><linearGradient id="I" gradientUnits="userSpaceOnUse" x1="366.85947384" x2="366.85947384" xlink:href="#z" y1="486.38801296" y2="509.02540504"/><path d="m512 161.035156c0 88.9375-72.097656 161.03125-161.035156 161.03125-88.933594 0-161.03125-72.09375-161.03125-161.03125s72.097656-161.035156 161.03125-161.035156c88.9375 0 161.035156 72.097656 161.035156 161.035156zm0 0" fill="url(#a)"/><path d="m450.878906 161.035156c0 55.179688-44.734375 99.910156-99.914062 99.910156-55.179688 0-99.910156-44.730468-99.910156-99.910156 0-55.179687 44.730468-99.914062 99.910156-99.914062 55.179687 0 99.914062 44.734375 99.914062 99.914062zm0 0" fill="url(#b)"/><path d="m294.761719 253.214844c1.011719 18.128906 1.769531 36.261718 2.554687 54.394531l1.050782 27.195313.863281 27.199218c.269531 9.0625.777343 18.128906 1.210937 27.195313.402344 9.066406.449219 18.132812.066406 27.199219-.375 9.0625-.984374 18.128906-1.871093 27.195312-.917969 9.066406-2.042969 18.132812-3.875 27.199219h-1.273438c-1.832031-9.066407-2.957031-18.132813-3.871093-27.199219-.890626-9.066406-1.5-18.132812-1.871094-27.195312-.386719-9.066407-.34375-18.132813.0625-27.199219.433594-9.066407.941406-18.132813 1.210937-27.195313l.863281-27.199218 1.054688-27.195313c.78125-18.132813 1.542969-36.265625 2.550781-54.394531zm0 0" fill="url(#d)"/><path d="m263.734375 286.078125c3.46875 3.148437 6.738281 6.445313 10.019531 9.722656 3.269532 3.296875 6.4375 6.660157 9.503906 10.097657 1.53125 1.71875 3.304688 3.269531 4.960938 4.898437 1.660156 1.628906 3.007812 3.476563 4.023438 5.566406 1.019531 2.082031 1.84375 4.304688 2.441406 6.683594.578125 2.394531.984375 4.914063.8125 7.839844l-1.039063.738281c-2.820312-.808594-5.0625-2.023438-7.128906-3.363281-2.046875-1.355469-3.871094-2.867188-5.5-4.519531-1.632813-1.644532-2.929687-3.53125-3.917969-5.636719-.988281-2.101563-1.863281-4.289063-2.980468-6.300781-2.226563-4.035157-4.351563-8.136719-6.378907-12.3125-2.007812-4.183594-4.035156-8.359376-5.859375-12.675782zm0 0" fill="url(#e)"/><path d="m240.929688 349.480469c5.179687 2.957031 10.199218 6.101562 15.234374 9.234375 5.023438 3.144531 9.964844 6.386718 14.828126 9.722656 2.433593 1.671875 5.050781 3.113281 7.578124 4.664062 2.53125 1.550782 4.820313 3.390626 6.847657 5.554688 2.03125 2.152344 3.910156 4.492188 5.617187 7.042969 1.6875 2.574219 3.238282 5.3125 4.34375 8.59375l-.808594.984375c-3.433593-.453125-6.417968-1.449219-9.265624-2.613282-2.835938-1.179687-5.492188-2.574218-7.996094-4.15625-2.511719-1.570312-4.761719-3.464843-6.765625-5.648437-2.011719-2.183594-3.929688-4.476563-6.039063-6.539063-4.210937-4.132812-8.34375-8.359374-12.394531-12.679687-4.042969-4.335937-8.097656-8.660156-11.992187-13.171875zm0 0" fill="url(#f)"/><path d="m326.695312 261.289062c-1.824218 4.320313-3.851562 8.492188-5.859374 12.679688-2.027344 4.175781-4.152344 8.277344-6.378907 12.308594-1.117187 2.015625-1.992187 4.199218-2.984375 6.304687-.988281 2.105469-2.28125 3.992188-3.917968 5.636719-1.625 1.652344-3.449219 3.164062-5.496094 4.519531-2.070313 1.335938-4.3125 2.554688-7.128906 3.363281l-1.042969-.738281c-.167969-2.925781.234375-5.445312.8125-7.84375.601562-2.378906 1.425781-4.601562 2.445312-6.679687 1.011719-2.089844 2.363281-3.9375 4.023438-5.566406 1.65625-1.632813 3.429687-3.179688 4.957031-4.898438 3.066406-3.4375 6.234375-6.804688 9.503906-10.097656 3.285156-3.28125 6.554688-6.574219 10.023438-9.726563zm0 0" fill="url(#g)"/><path d="m349.265625 324.941406c-3.894531 4.515625-7.949219 8.835938-11.988281 13.175782-4.054688 4.320312-8.1875 8.546874-12.398438 12.679687-2.109375 2.0625-4.027344 4.355469-6.035156 6.539063-2.007812 2.183593-4.253906 4.074218-6.765625 5.648437-2.507813 1.578125-5.164063 2.972656-7.996094 4.15625-2.851562 1.160156-5.835937 2.15625-9.269531 2.613281l-.808594-.988281c1.105469-3.28125 2.65625-6.015625 4.34375-8.589844 1.707032-2.550781 3.585938-4.890625 5.617188-7.046875 2.027344-2.160156 4.316406-4 6.847656-5.550781 2.527344-1.550781 5.148438-2.992187 7.578125-4.664063 4.863281-3.339843 9.808594-6.578124 14.828125-9.726562 5.035156-3.128906 10.054688-6.273438 15.234375-9.230469zm0 0" fill="url(#h)"/><path d="m423.03125 152.359375c1.566406 28.179687 2.75 56.363281 3.964844 84.546875l1.636718 42.273438 1.339844 42.269531c.421875 14.09375 1.214844 28.183593 1.882813 42.273437.628906 14.09375.699219 28.183594.101562 42.273438-.582031 14.09375-1.53125 28.183594-2.910156 42.273437-1.421875 14.09375-3.171875 28.183594-6.015625 42.273438h-1.984375c-2.84375-14.089844-4.59375-28.179688-6.015625-42.273438-1.382812-14.089843-2.328125-28.179687-2.910156-42.273437-.601563-14.089844-.527344-28.179688.097656-42.273438.671875-14.089844 1.460938-28.179687 1.886719-42.273437l1.335937-42.269531 1.636719-42.273438c1.21875-28.183594 2.402344-56.367188 3.96875-84.546875zm0 0" fill="url(#i)"/><path d="m374.796875 203.4375c5.394531 4.898438 10.472656 10.019531 15.582031 15.121094 5.078125 5.117187 10.003906 10.347656 14.769532 15.691406 2.378906 2.671875 5.132812 5.078125 7.710937 7.613281 2.578125 2.53125 4.675781 5.40625 6.25 8.648438 1.585937 3.238281 2.867187 6.691406 3.800781 10.390625.898438 3.722656 1.523438 7.636718 1.261719 12.1875l-1.617187 1.144531c-4.378907-1.253906-7.867188-3.144531-11.082032-5.226563-3.179687-2.105468-6.015625-4.453124-8.542968-7.023437-2.542969-2.558594-4.554688-5.488281-6.09375-8.761719-1.539063-3.269531-2.898438-6.667968-4.632813-9.796875-3.460937-6.265625-6.765625-12.644531-9.914063-19.132812-3.121093-6.507813-6.273437-12.996094-9.105468-19.707031zm0 0" fill="url(#j)"/><path d="m339.355469 301.988281c8.046875 4.59375 15.851562 9.484375 23.679687 14.351563 7.804688 4.886718 15.488282 9.925781 23.050782 15.113281 3.777343 2.597656 7.847656 4.839844 11.777343 7.25 3.929688 2.410156 7.492188 5.273437 10.640625 8.632813 3.15625 3.347656 6.082032 6.984374 8.730469 10.949218 2.625 4 5.039063 8.253906 6.757813 13.355469l-1.261719 1.53125c-5.332031-.707031-9.972657-2.253906-14.402344-4.0625-4.402344-1.835937-8.53125-4.003906-12.429687-6.457031-3.902344-2.445313-7.394532-5.386719-10.515626-8.785156-3.121093-3.390626-6.105468-6.953126-9.378906-10.160157-6.546875-6.421875-12.96875-12.992187-19.269531-19.710937-6.28125-6.742188-12.582031-13.460938-18.636719-20.476563zm0 0" fill="url(#k)"/><path d="m472.660156 164.914062c-2.835937 6.710938-5.984375 13.199219-9.109375 19.707032-3.148437 6.488281-6.453125 12.863281-9.914062 19.132812-1.734375 3.128906-3.09375 6.527344-4.632813 9.792969-1.539062 3.273437-3.550781 6.207031-6.09375 8.765625-2.527344 2.566406-5.363281 4.917969-8.542968 7.023438-3.214844 2.078124-6.703126 3.96875-11.082032 5.226562l-1.617187-1.148438c-.261719-4.546874.363281-8.464843 1.261719-12.1875.933593-3.699218 2.210937-7.152343 3.800781-10.386718 1.574219-3.246094 3.671875-6.117188 6.25-8.648438 2.574219-2.535156 5.332031-4.945312 7.710937-7.617187 4.765625-5.339844 9.691406-10.570313 14.769532-15.691407 5.105468-5.101562 10.183593-10.222656 15.578124-15.117187zm0 0" fill="url(#l)"/><path d="m507.746094 263.847656c-6.058594 7.015625-12.359375 13.730469-18.640625 20.476563-6.300781 6.71875-12.722657 13.285156-19.265625 19.707031-3.277344 3.207031-6.257813 6.769531-9.382813 10.164062-3.121093 3.394532-6.613281 6.335938-10.515625 8.78125-3.898437 2.453126-8.027344 4.625-12.429687 6.460938-4.429688 1.804688-9.070313 3.355469-14.402344 4.058594l-1.261719-1.53125c1.71875-5.097656 4.132813-9.351563 6.757813-13.351563 2.648437-3.96875 5.570312-7.601562 8.730469-10.953125 3.148437-3.359375 6.710937-6.222656 10.640624-8.628906 3.929688-2.414062 8-4.652344 11.777344-7.253906 7.5625-5.183594 15.246094-10.222656 23.050782-15.113282 7.828124-4.863281 15.628906-9.757812 23.679687-14.347656zm0 0" fill="url(#m)"/><path d="m83.355469 241.636719c1.066406 19.136719 1.867187 38.277343 2.695312 57.414062l1.109375 28.710938.910156 28.707031c.289063 9.570312.824219 19.140625 1.28125 28.710938.425782 9.570312.472657 19.136718.066407 28.707031-.394531 9.570312-1.039063 19.140625-1.976563 28.710937-.964844 9.566406-2.15625 19.136719-4.085937 28.707032h-1.347657c-1.929687-9.570313-3.121093-19.136719-4.085937-28.707032-.9375-9.570312-1.582031-19.140625-1.976563-28.710937-.40625-9.570313-.359374-19.136719.066407-28.707031.457031-9.570313.992187-19.140626 1.28125-28.710938l.910156-28.707031 1.109375-28.710938c.824219-19.136719 1.628906-38.277343 2.695312-57.414062zm0 0" fill="url(#n)"/><path d="m50.601562 276.324219c3.660157 3.328125 7.109376 6.804687 10.578126 10.269531 3.449218 3.476562 6.792968 7.027344 10.03125 10.65625 1.617187 1.816406 3.488281 3.449219 5.234374 5.171875 1.753907 1.71875 3.179688 3.671875 4.246094 5.875 1.078125 2.195313 1.945313 4.542969 2.582032 7.054687.609374 2.527344 1.035156 5.1875.855468 8.273438l-1.097656.78125c-2.976562-.855469-5.34375-2.136719-7.527344-3.550781-2.160156-1.429688-4.085937-3.023438-5.800781-4.769531-1.726563-1.738282-3.09375-3.730469-4.136719-5.949219-1.046875-2.21875-1.96875-4.527344-3.148437-6.652344-2.351563-4.257813-4.59375-8.589844-6.734375-12.996094-2.117188-4.417969-4.257813-8.824219-6.183594-13.382812zm0 0" fill="url(#o)"/><path d="m26.527344 343.253906c5.46875 3.121094 10.769531 6.441406 16.082031 9.746094 5.300781 3.320312 10.519531 6.742188 15.65625 10.265625 2.5625 1.761719 5.328125 3.285156 7.996094 4.921875 2.671875 1.636719 5.089843 3.578125 7.230469 5.863281 2.144531 2.273438 4.128906 4.742188 5.925781 7.4375 1.785156 2.714844 3.421875 5.605469 4.589843 9.066407l-.855468 1.042968c-3.625-.480468-6.773438-1.53125-9.78125-2.757812-2.992188-1.25-5.796875-2.722656-8.441406-4.386719-2.648438-1.660156-5.023438-3.660156-7.140626-5.964844-2.121093-2.304687-4.148437-4.722656-6.371093-6.902343-4.445313-4.359376-8.808594-8.824219-13.085938-13.382813-4.265625-4.582031-8.546875-9.140625-12.660156-13.90625zm0 0" fill="url(#p)"/><path d="m117.058594 250.160156c-1.921875 4.558594-4.0625 8.964844-6.183594 13.382813-2.136719 4.40625-4.382812 8.738281-6.734375 12.996093-1.175781 2.125-2.097656 4.433594-3.144531 6.652344-1.042969 2.222656-2.410156 4.214844-4.136719 5.953125-1.71875 1.742188-3.644531 3.339844-5.804687 4.769531-2.183594 1.414063-4.550782 2.695313-7.523438 3.546876l-1.101562-.777344c-.179688-3.089844.25-5.746094.859374-8.277344.632813-2.511719 1.5-4.855469 2.578126-7.054688 1.070312-2.203124 2.496093-4.152343 4.246093-5.875 1.75-1.71875 3.621094-3.355468 5.238281-5.171874 3.234376-3.625 6.578126-7.179688 10.03125-10.65625 3.46875-3.460938 6.914063-6.941407 10.578126-10.265626zm0 0" fill="url(#q)"/><path d="m140.886719 317.351562c-4.113281 4.765626-8.390625 9.324219-12.65625 13.90625-4.28125 4.558594-8.640625 9.023438-13.085938 13.382813-2.222656 2.179687-4.25 4.597656-6.371093 6.902344-2.121094 2.304687-4.492188 4.304687-7.140626 5.964843-2.648437 1.664063-5.453124 3.136719-8.441406 4.386719-3.007812 1.226563-6.160156 2.277344-9.78125 2.757813l-.855468-1.042969c1.167968-3.460937 2.804687-6.351563 4.585937-9.066406 1.800781-2.695313 3.785156-5.164063 5.929687-7.4375 2.140626-2.285157 4.558594-4.226563 7.226563-5.863281 2.667969-1.636719 5.433594-3.160157 8-4.921876 5.132813-3.523437 10.351563-6.945312 15.652344-10.265624 5.316406-3.304688 10.617187-6.625 16.082031-9.746094zm0 0" fill="url(#r)"/><path d="m195.253906 167.65625c1.566406 28.183594 2.75 56.363281 3.964844 84.546875l1.636719 42.273437 1.339843 42.273438c.421876 14.089844 1.214844 28.183594 1.886719 42.273438.625 14.089843.699219 28.179687.097657 42.273437-.578126 14.089844-1.53125 28.179687-2.90625 42.273437-1.425782 14.089844-3.175782 28.179688-6.019532 42.273438h-1.984375c-2.84375-14.09375-4.59375-28.183594-6.015625-42.273438-1.378906-14.09375-2.328125-28.183593-2.910156-42.273437-.597656-14.09375-.527344-28.183594.097656-42.273437.671875-14.089844 1.464844-28.183594 1.886719-42.273438l1.339844-42.273438 1.636719-42.273437c1.214843-28.183594 2.398437-56.363281 3.964843-84.546875zm0 0" fill="url(#s)"/><path d="m147.023438 218.738281c5.390624 4.898438 10.472656 10.015625 15.578124 15.117188 5.078126 5.121093 10.003907 10.351562 14.769532 15.691406 2.378906 2.675781 5.136718 5.082031 7.710937 7.617187 2.578125 2.53125 4.675781 5.402344 6.25 8.648438 1.589844 3.234375 2.867188 6.691406 3.800781 10.386719.898438 3.726562 1.527344 7.640625 1.261719 12.1875l-1.617187 1.148437c-4.378906-1.257812-7.867188-3.144531-11.082032-5.226562-3.179687-2.105469-6.015624-4.457032-8.542968-7.023438-2.542969-2.558594-4.554688-5.492187-6.089844-8.761718-1.542969-3.269532-2.898438-6.667969-4.636719-9.796876-3.460937-6.265624-6.765625-12.644531-9.914062-19.132812-3.121094-6.507812-6.273438-12.996094-9.105469-19.707031zm0 0" fill="url(#t)"/><path d="m111.578125 317.289062c8.046875 4.589844 15.851563 9.484376 23.679687 14.347657 7.804688 4.890625 15.488282 9.929687 23.050782 15.113281 3.777344 2.601562 7.847656 4.839844 11.777344 7.253906 3.929687 2.40625 7.492187 5.269532 10.640624 8.628906 3.15625 3.351563 6.082032 6.984376 8.730469 10.953126 2.625 3.996093 5.039063 8.253906 6.757813 13.351562l-1.261719 1.53125c-5.332031-.703125-9.972656-2.253906-14.402344-4.058594-4.402343-1.835937-8.53125-4.007812-12.425781-6.460937-3.90625-2.445313-7.398438-5.386719-10.519531-8.78125-3.121094-3.390625-6.105469-6.957031-9.378907-10.160157-6.546874-6.421874-12.96875-12.992187-19.269531-19.710937-6.28125-6.742187-12.582031-13.460937-18.636719-20.476563zm0 0" fill="url(#u)"/><path d="m244.882812 180.210938c-2.835937 6.710937-5.984374 13.199218-9.105468 19.707031-3.152344 6.488281-6.457032 12.867187-9.917969 19.132812-1.734375 3.132813-3.09375 6.527344-4.632813 9.796875-1.535156 3.273438-3.550781 6.203125-6.089843 8.765625-2.53125 2.566407-5.367188 4.917969-8.546875 7.023438-3.214844 2.078125-6.703125 3.96875-11.078125 5.222656l-1.621094-1.144531c-.261719-4.550782.363281-8.464844 1.261719-12.1875.933594-3.699219 2.214844-7.152344 3.800781-10.390625 1.574219-3.242188 3.671875-6.113281 6.25-8.648438 2.574219-2.535156 5.332031-4.941406 7.710937-7.613281 4.765626-5.34375 9.691407-10.570312 14.769532-15.691406 5.105468-5.101563 10.1875-10.222656 15.582031-15.117188zm0 0" fill="url(#v)"/><path d="m279.96875 279.148438c-6.058594 7.011718-12.359375 13.730468-18.636719 20.472656-6.300781 6.71875-12.726562 13.289062-19.269531 19.710937-3.277344 3.207031-6.257812 6.769531-9.382812 10.164063-3.121094 3.394531-6.613282 6.335937-10.515626 8.78125-3.894531 2.453125-8.027343 4.621094-12.429687 6.460937-4.429687 1.804688-9.066406 3.351563-14.402344 4.058594l-1.257812-1.53125c1.71875-5.101563 4.128906-9.355469 6.753906-13.355469 2.648437-3.964844 5.574219-7.601562 8.730469-10.949218 3.152344-3.359376 6.710937-6.222657 10.644531-8.628907 3.929687-2.414062 8-4.65625 11.777344-7.253906 7.558593-5.1875 15.242187-10.222656 23.046875-15.113281 7.828125-4.867188 15.632812-9.757813 23.683594-14.351563zm0 0" fill="url(#w)"/><path d="m333.222656 333.1875c-5.023437 3.148438-9.964844 6.390625-14.832031 9.726562-2.429687 1.671876-5.046875 3.113282-7.574219 4.664063-2.53125 1.550781-4.824218 3.390625-6.847656 5.550781-1.726562 1.832032-3.339844 3.804688-4.832031 5.921875l-.769531-24.246093-1.050782-27.199219c-.035156-.769531-.066406-1.535157-.101562-2.304688 1.796875-.726562 3.371094-1.609375 4.84375-2.5625 2.046875-1.355469 3.871094-2.867187 5.496094-4.519531 1.636718-1.644531 2.929687-3.53125 3.917968-5.636719.992188-2.105469 1.867188-4.289062 2.984375-6.304687 2.226563-4.03125 4.351563-8.132813 6.378907-12.308594 2.007812-4.1875 4.035156-8.359375 5.859374-12.679688l-1.042968-.738281c-3.46875 3.152344-6.738282 6.445313-10.023438 9.726563-3.265625 3.292968-6.4375 6.660156-9.503906 10.097656-1.527344 1.71875-3.300781 3.265625-4.957031 4.898438-1.660157 1.628906-3.011719 3.476562-4.023438 5.566406-.179687.359375-.339843.734375-.507812 1.105468-.5625-12.910156-1.15625-25.824218-1.871094-38.734374h-1.277344c-1.007812 18.132812-1.769531 36.265624-2.550781 54.394531l-.238281 6.144531c-.730469-1.054688-1.550781-2.039062-2.480469-2.953125-1.65625-1.628906-3.429688-3.179687-4.957031-4.898437-3.070313-3.4375-6.234375-6.800782-9.503907-10.097657-1.535156-1.53125-3.070312-3.066406-4.617187-4.589843 3.65625-3.964844 7.285156-7.960938 10.828125-12.066407l-1.257812-1.53125c-4.960938 2.832031-9.824219 5.777344-14.660157 8.757813-.105469-.097656-.210937-.199219-.316406-.296875l-1.042969.738281c.046875.105469.09375.207031.136719.3125-2.601563 1.609375-5.203125 3.222656-7.796875 4.835938-7.804688 4.890624-15.488281 9.929687-23.050781 15.117187-3.777344 2.597656-7.847657 4.835937-11.777344 7.25-3.933594 2.40625-7.492187 5.269531-10.644531 8.628906-2.683594 2.847657-5.183594 5.914063-7.507813 9.203125l-1.191406-37.6875-1.636719-42.269531c-.050781-1.195313-.105468-2.386719-.15625-3.574219 2.792969-1.132812 5.234375-2.511718 7.527344-3.996094 3.179688-2.105468 6.015625-4.457031 8.542969-7.023437 2.542969-2.558594 4.554687-5.492187 6.089843-8.761719 1.542969-3.269531 2.898438-6.667968 4.636719-9.796875 3.460938-6.265625 6.765625-12.644531 9.914063-19.132812 3.121094-6.507813 6.273437-12.996094 9.105468-19.707031l-1.617187-1.148438c-5.394531 4.898438-10.472656 10.019531-15.578125 15.121094-5.082031 5.117187-10.003906 10.347656-14.769531 15.691406-2.378907 2.671875-5.136719 5.078125-7.710938 7.613281-2.578125 2.535157-4.679687 5.40625-6.253906 8.648438-.273437.566406-.527344 1.144531-.785156 1.71875-.878907-20.066407-1.796875-40.132813-2.914063-60.199219h-1.984375c-1.566406 28.183594-2.75 56.363281-3.964843 84.546875l-.371094 9.546875c-1.132813-1.632812-2.410156-3.167969-3.851563-4.585938-2.574219-2.535156-5.332031-4.941406-7.710937-7.617187-4.765625-5.339844-9.691406-10.570313-14.769532-15.691406-5.105468-5.101563-10.1875-10.21875-15.578124-15.117188l-1.617188 1.148438c2.832031 6.710937 5.984375 13.195312 9.105469 19.707031 3.148437 6.488281 6.453125 12.863281 9.914062 19.132812 1.738281 3.128907 3.09375 6.527344 4.636719 9.792969 1.535156 3.273438 3.546875 6.207031 6.089844 8.765625 2.527344 2.566406 5.363281 4.917969 8.542968 7.023438 1.359376.878906 2.769532 1.71875 4.269532 2.492187l-.296875 7.675781-1.339844 42.273438c-.308594 10.265625-.8125 20.527344-1.320313 30.792969-1.375-1.699219-2.796874-3.339844-4.28125-4.910157-3.148437-3.359374-6.707031-6.222656-10.640624-8.628906-3.929688-2.414062-8-4.652344-11.777344-7.253906-7.5625-5.183594-15.246094-10.222656-23.050782-15.113281-7.824218-4.863281-15.628906-9.757813-23.679687-14.347657l-1.257813 1.53125c6.054688 7.015626 12.355469 13.730469 18.636719 20.476563 6.300781 6.71875 12.722657 13.285156 19.265625 19.707031 3.277344 3.207032 6.261719 6.769532 9.382813 10.164063 3.121093 3.394531 6.613281 6.335937 10.515625 8.78125 3.894531 2.453125 8.027344 4.621093 12.429687 6.460937 1.199219.488282 2.417969.957032 3.65625 1.394532-.375 11.832031-.367187 23.660156.136719 35.488281.578125 14.09375 1.527344 28.183593 2.90625 42.273437 1.425781 14.09375 3.175781 28.183594 6.019531 42.273438h1.984375c2.84375-14.089844 4.59375-28.179688 6.015625-42.273438 1.378907-14.089844 2.328125-28.179687 2.910157-42.273437.597656-14.089844.527343-28.179688-.101563-42.269531-.503906-10.589844-1.074219-21.175782-1.507813-31.761719 2.492188-.71875 4.855469-1.585938 7.164063-2.527344 4.402344-1.835937 8.53125-4.007813 12.429687-6.460937 3.902344-2.445313 7.394532-5.386719 10.515626-8.78125 3.121093-3.390626 6.105468-6.953126 9.382812-10.160157 6.542969-6.421875 12.964844-12.992187 19.265625-19.710937 1.605469-1.722656 3.210937-3.445313 4.8125-5.167969.796875 1.683594 1.601563 3.363281 2.40625 5.039063 2.027344 4.175781 4.152344 8.277343 6.378906 12.3125 1.117188 2.011718 1.992188 4.199218 2.984375 6.300781.988282 2.105469 2.28125 3.992187 3.917969 5.636719 1.625 1.652343 3.449219 3.167968 5.496094 4.519531.871093.5625 1.785156 1.097656 2.746093 1.59375l-.191406 4.949219-.859375 27.195312c-.199219 6.605469-.523437 13.210938-.851562 19.8125-.882813-1.09375-1.800781-2.148438-2.753907-3.15625-2.027343-2.164062-4.316406-4.003906-6.84375-5.554688-2.53125-1.550781-5.148437-2.992187-7.578124-4.664062-4.863282-3.335938-9.808594-6.578125-14.832032-9.722656-5.03125-3.132813-10.054687-6.277344-15.234375-9.234375l-.808593.988281c3.894531 4.511719 7.949218 8.835938 11.988281 13.171875 4.054687 4.324219 8.1875 8.550781 12.398437 12.679687 2.105469 2.066407 4.027344 4.355469 6.035156 6.539063 2.007813 2.183594 4.253907 4.078125 6.765626 5.652344 2.507812 1.578125 5.164062 2.972656 7.996093 4.15625.769531.3125 1.554688.613281 2.351563.894531-.238282 7.613281-.234375 15.222656.089844 22.835938.371093 9.066406.980468 18.132812 1.871093 27.199218.914063 9.0625 2.039063 18.128906 3.871094 27.195313h1.273437c1.832032-9.066407 2.957032-18.132813 3.871094-27.195313.886719-9.066406 1.5-18.132812 1.871094-27.199218.386719-9.066407.339844-18.132813-.0625-27.195313-.324219-6.8125-.691406-13.625-.972656-20.4375 1.601562-.464844 3.125-1.019531 4.609375-1.625 2.835937-1.179687 5.492187-2.574219 7.996093-4.15625 2.511719-1.570313 4.757813-3.464844 6.769532-5.648437 2.007812-2.179688 3.925781-4.472657 6.035156-6.539063 4.210938-4.128906 8.34375-8.355469 12.394531-12.679687 4.042969-4.339844 8.097657-8.660157 11.992188-13.171876l-.8125-.988281c-5.171875 2.953125-10.195313 6.101563-15.226563 9.230469zm0 0" fill="url(#x)"/><path d="m506.484375 262.316406c-8.050781 4.589844-15.851563 9.484375-23.679687 14.347656-7.804688 4.890626-15.488282 9.929688-23.050782 15.113282-3.773437 2.597656-7.847656 4.839844-11.777344 7.253906-3.929687 2.40625-7.492187 5.269531-10.640624 8.628906-2.683594 2.847656-5.1875 5.914063-7.507813 9.203125l-1.195313-37.6875-1.636718-42.273437c-.050782-1.191406-.101563-2.382813-.152344-3.574219 2.792969-1.128906 5.230469-2.507813 7.523438-3.992187 3.179687-2.105469 6.015624-4.457032 8.546874-7.023438 2.539063-2.5625 4.554688-5.492188 6.089844-8.765625 1.539063-3.269531 2.898438-6.664063 4.632813-9.796875 3.460937-6.265625 6.765625-12.644531 9.917969-19.132812 3.121093-6.507813 6.269531-12.992188 9.105468-19.707032l-1.617187-1.144531c-5.394531 4.894531-10.472657 10.015625-15.582031 15.117187-5.078126 5.121094-10 10.347657-14.769532 15.691407-2.375 2.671875-5.132812 5.078125-7.707031 7.613281-2.578125 2.535156-4.679687 5.40625-6.253906 8.648438-.273438.566406-.527344 1.144531-.789063 1.71875-.875-20.066407-1.792968-40.132813-2.910156-60.199219h-1.984375c-1.566406 28.183593-2.75 56.363281-3.96875 84.546875l-.367187 9.546875c-1.136719-1.632813-2.410157-3.167969-3.851563-4.585938-2.574219-2.535156-5.332031-4.941406-7.710937-7.617187-4.765626-5.339844-9.691407-10.570313-14.769532-15.691406-5.109375-5.101563-10.183594-10.21875-15.578125-15.117188l-1.621093 1.148438c2.835937 6.710937 5.984374 13.199218 9.109374 19.707031 3.148438 6.488281 6.453126 12.867187 9.914063 19.132812 1.734375 3.128907 3.09375 6.527344 4.632813 9.796875 1.535156 3.269532 3.550781 6.203125 6.089843 8.761719 2.53125 2.566406 5.367188 4.917969 8.546875 7.023437 1.355469.878907 2.769532 1.71875 4.269532 2.496094l-.300782 7.675782-1.335937 42.269531c-.308594 10.265625-.8125 20.53125-1.324219 30.796875-1.371094-1.703125-2.796875-3.34375-4.277344-4.910156-3.148437-3.359376-6.707031-6.222657-10.640625-8.632813-3.929687-2.410156-8-4.652344-11.777343-7.25-7.5625-5.1875-15.246094-10.222656-23.050782-15.113281-7.824218-4.867188-15.628906-9.757813-23.679687-14.351563l-1.257813 1.53125c6.054688 7.015625 12.355469 13.734375 18.636719 20.476563 6.300781 6.71875 12.722656 13.289062 19.269531 19.710937 3.273438 3.207031 6.257813 6.769531 9.378906 10.160157 3.121094 3.398437 6.613282 6.339843 10.515626 8.785156 3.898437 2.453125 8.027343 4.621094 12.429687 6.457031 1.199219.492187 2.417969.957031 3.65625 1.398437-.375 11.828126-.367187 23.660157.136719 35.488282.578125 14.09375 1.527344 28.183594 2.910156 42.273437 1.421875 14.09375 3.171875 28.183594 6.015625 42.273438h1.984375c2.84375-14.089844 4.59375-28.179688 6.015625-42.273438 1.382813-14.089843 2.328125-28.179687 2.910156-42.273437.597657-14.089844.527344-28.179688-.101562-42.273438-.503907-10.585937-1.074219-21.171875-1.507813-31.757812 2.492188-.71875 4.859375-1.585938 7.164063-2.527344 4.402343-1.835938 8.53125-4.007812 12.429687-6.460938 3.902344-2.445312 7.394532-5.386718 10.515625-8.78125 3.125-3.390624 6.105469-6.957031 9.382813-10.164062 6.542968-6.421875 12.964844-12.988281 19.269531-19.707031 6.277344-6.746094 12.582031-13.460938 18.636719-20.476563zm0 0" fill="url(#x)"/><path d="m235.808594 469.085938c-5.570313 0-10.914063.980468-15.859375 2.78125-4.570313 1.660156-9.675781.449218-13.03125-3.066407-6.378907-6.695312-15.382813-10.867187-25.363281-10.867187-3.15625 0-6.214844.417968-9.125 1.199218-4.316407 1.160157-8.90625-.191406-11.988282-3.429687-12.320312-12.933594-29.707031-20.996094-48.984375-20.996094-23.027343 0-43.367187 11.511719-55.585937 29.097657-2.414063 3.472656-6.410156 5.425781-10.636719 5.300781-.46875-.015625-.941406-.019531-1.414063-.019531-19.824218 0-36.742187 12.417968-43.402343 29.894531-1.566407 4.105469 1.464843 8.503906 5.855469 8.503906h267.082031c4.390625 0 7.417969-4.398437 5.855469-8.503906-6.660157-17.476563-23.578126-29.894531-43.402344-29.894531zm0 0" fill="url(#y)"/><path d="m43.820312 469.085938c-.730468 0-1.449218.019531-2.167968.054687-.21875.007813-.4375.023437-.652344.039063-.515625.03125-1.027344.066406-1.535156.113281-.230469.023437-.460938.042969-.691406.070312-.5625.058594-1.117188.132813-1.675782.210938-.144531.019531-.292968.039062-.441406.0625-.695312.105469-1.382812.230469-2.066406.367187-.175782.035156-.351563.078125-.527344.113282-.511719.109374-1.023438.226562-1.53125.355468-.222656.054688-.445312.113282-.667969.171875-.484375.128907-.96875.269531-1.453125.414063-.1875.054687-.378906.109375-.570312.167968-.65625.207032-1.304688.425782-1.945313.660157-.089843.03125-.179687.070312-.269531.101562-.554688.207031-1.101562.425781-1.648438.652344-.203124.082031-.402343.171875-.605468.257813-.441406.195312-.882813.394531-1.320313.597656-.195312.09375-.398437.1875-.59375.28125-.519531.253906-1.03125.519531-1.539062.789062-.09375.050782-.1875.097656-.277344.144532-.59375.324218-1.175781.660156-1.75 1.007812-.171875.101562-.339844.210938-.511719.316406-.410156.253906-.820312.515625-1.222656.78125-.191406.128906-.382812.257813-.574219.390625-.40625.277344-.808593.5625-1.203125.855469-.152344.113281-.308594.21875-.457031.332031-.53125.398438-1.054687.808594-1.566406 1.230469-.125.101562-.246094.210938-.371094.316406-.394531.328125-.78125.664063-1.160156 1.003906-.175781.160157-.351563.320313-.527344.480469-.332031.3125-.664063.625-.988281.945313-.164063.160156-.328125.320312-.492188.484375-.421875.425781-.835937.859375-1.242187 1.300781-.078125.085938-.15625.175781-.234375.261719-.410156.453125-.808594.914062-1.199219 1.382812-.152344.179688-.300781.367188-.449219.554688-.277344.34375-.550781.6875-.816406 1.039062-.15625.203125-.308594.40625-.460938.613281-.28125.378907-.554687.765626-.820312 1.152344-.117188.167969-.238281.335938-.351562.503906-.359376.535157-.707032 1.082032-1.046876 1.632813-.117187.195313-.230468.398437-.351562.59375-.226562.382813-.449219.769531-.664062 1.160156-.132813.238281-.261719.476563-.386719.714844-.203125.375-.394531.757813-.585938 1.140625-.113281.230469-.230469.457031-.339843.691406-.277344.582032-.546876 1.167969-.796876 1.761719-.078124.179687-.144531.363281-.21875.542969-.164062.394531-.320312.792968-.472656 1.191406-1.464844 4.070312 1.542969 8.390625 5.890625 8.390625h83.277344c-3.808594-21.8125-22.824219-38.398437-45.726563-38.398437zm0 0" fill="url(#A)"/><path d="m179.101562 502.347656c0-18.054687-7.074218-34.460937-18.605468-46.589844-.019532-.019531-.039063-.035156-.054688-.054687-3.082031-3.230469-6.476562-6.160156-10.136718-8.734375-.007813-.003906-.015626-.007812-.019532-.011719-.445312-.3125-.894531-.621093-1.347656-.921875-.03125-.019531-.0625-.039062-.09375-.0625-.425781-.285156-.859375-.566406-1.296875-.839844-.050781-.03125-.097656-.0625-.148437-.09375-.417969-.261718-.839844-.519531-1.265626-.773437-.066406-.042969-.132812-.078125-.199218-.121094-.40625-.242187-.820313-.480469-1.234375-.714843-.082031-.046876-.164063-.09375-.246094-.136719-.402344-.226563-.804687-.445313-1.210937-.664063-.09375-.050781-.191407-.101562-.289063-.152344-.394531-.207031-.789063-.410156-1.1875-.613281-.109375-.054687-.214844-.105469-.324219-.160156-.390625-.191406-.78125-.382813-1.179687-.570313-.117188-.054687-.234375-.109374-.351563-.164062-.386718-.179688-.777344-.355469-1.167968-.527344-.128907-.058594-.253907-.113281-.382813-.167968-.382813-.167969-.769531-.332032-1.15625-.492188-.136719-.054688-.273437-.109375-.410156-.164062-.382813-.15625-.765625-.308594-1.152344-.453126-.144531-.054687-.285156-.109374-.429687-.164062-.378907-.144531-.765626-.28125-1.148438-.417969-.148438-.054687-.300781-.105469-.449219-.160156-.382812-.132813-.765625-.257813-1.152343-.382813-.152344-.054687-.308594-.105468-.464844-.152343-.382813-.121094-.765625-.238281-1.148438-.351563-.160156-.050781-.324218-.097656-.484375-.144531-.382812-.113281-.765625-.21875-1.152343-.324219-.164063-.042968-.328126-.089844-.496094-.132812-.382813-.101563-.769532-.199219-1.15625-.292969-.167969-.039063-.335938-.082031-.503906-.121094-.390626-.09375-.78125-.179687-1.171876-.265625-.167968-.035156-.335937-.074218-.507812-.109375-.394531-.082031-.789062-.160156-1.1875-.234375-.167969-.03125-.332031-.066406-.5-.097656-.402344-.070312-.808594-.140625-1.210938-.207031-.167968-.027344-.332031-.054688-.496093-.082031-.414063-.0625-.828125-.121094-1.242188-.179688-.160156-.019531-.316406-.046875-.476562-.066406-.429688-.054688-.859375-.101563-1.292969-.152344-.144531-.015625-.292969-.035156-.4375-.050781-.457031-.046875-.914062-.085938-1.375-.125-.121094-.007813-.246094-.023438-.371094-.03125-.507812-.039063-1.015625-.070313-1.527344-.101563-.074218-.003906-.152343-.007812-.226562-.011718-1.183594-.0625-2.375-.09375-3.574219-.09375-.667969 0-1.335937.011718-2.003906.03125-.171875.003906-.347656.011718-.519531.019531-.492188.019531-.980469.039062-1.46875.066406-.207032.015625-.414063.027344-.621094.039063-.472656.035156-.941406.070312-1.410156.113281-.191406.015625-.378906.03125-.570313.050781-.578125.054688-1.15625.117188-1.730469.1875-.066406.007812-.136718.015625-.207031.027344-.652343.082031-1.300781.171875-1.945312.273437-.144531.023438-.289063.046875-.433594.070313-.492187.082031-.988281.164062-1.476563.257812-.199218.035156-.390624.074219-.589843.113282-.449219.085937-.902344.179687-1.347657.273437-.191406.042969-.378906.082031-.566406.125-.507812.113281-1.015625.234375-1.519531.359375-.113281.027344-.230469.054688-.34375.082031-.628906.164063-1.253906.332031-1.878906.507813-.078125.023437-.152344.046875-.230469.070312-.53125.15625-1.0625.316406-1.589844.484375-.167968.050781-.332031.105469-.5.160157-.445312.144531-.894531.296874-1.335937.449218-.171875.0625-.34375.121094-.515625.183594-.472656.167969-.941406.34375-1.414063.523438-.117187.046874-.242187.089843-.363281.136718-1.191406.464844-2.371094.964844-3.53125 1.496094-.121094.058594-.246094.117188-.367188.175781-.457031.210938-.90625.425781-1.355468.648438-.144532.070312-.289063.140625-.429688.210937-.453125.226563-.902344.460938-1.347656.695313-.113281.058593-.226562.117187-.339844.179687-1.132812.605469-2.242187 1.246094-3.335937 1.914063-.070313.042969-.136719.085937-.207031.128906-.46875.289063-.929688.582031-1.390626.882813-.113281.074218-.226562.148437-.34375.226562-.429687.285156-.859374.574219-1.28125.867188-.101562.070312-.199218.136718-.296874.207031-1.058594.742187-2.09375 1.511719-3.105469 2.3125-.007813.003906-.011719.007812-.019531.011719-.484376.386718-.964844.777343-1.4375 1.175781-.085938.070312-.171876.144531-.257813.214843-.40625.34375-.808594.691407-1.203125 1.042969-.089844.078125-.175781.15625-.261719.234375-.441406.394532-.875.792969-1.300781 1.195313-.027344.027343-.058594.050781-.085938.074219-.9375.890624-1.855468 1.808593-2.742187 2.75-.0625.066406-.125.136718-.1875.203124-.371094.398438-.738281.796876-1.101563 1.203126-.078124.089843-.15625.179687-.234374.265624-.371094.417969-.734376.84375-1.09375 1.273438-.046876.054688-.09375.109375-.140626.167969-.828124.992187-1.628906 2.011719-2.402343 3.050781-.042969.058594-.085938.121094-.128907.179688-.328124.445312-.652343.898437-.972656 1.355468-7.660156 10.960938-12.15625 24.300782-12.15625 38.691406 0 1.726563.066406 3.4375.191406 5.132813h134.902344c.125-1.695313.191406-3.40625.191406-5.136719zm0 0" fill="url(#B)"/><path d="m190.082031 507.484375h83.273438c4.351562 0 7.359375-4.320313 5.890625-8.386719-.152344-.402344-.304688-.796875-.46875-1.191406-.074219-.183594-.140625-.363281-.21875-.542969-.253906-.597656-.519532-1.183593-.796875-1.765625-.113281-.230468-.226563-.460937-.339844-.691406-.191406-.382812-.386719-.761719-.585937-1.140625-.128907-.238281-.257813-.476563-.386719-.714844-.214844-.390625-.441407-.773437-.667969-1.15625-.117188-.199219-.230469-.402343-.351562-.597656-.335938-.550781-.6875-1.097656-1.046876-1.632813-.113281-.167968-.234374-.332031-.347656-.5-.269531-.390624-.542968-.777343-.820312-1.15625-.152344-.207031-.304688-.410156-.460938-.613281-.269531-.351562-.542968-.695312-.816406-1.039062-.152344-.1875-.300781-.371094-.453125-.554688-.390625-.46875-.789063-.929687-1.195313-1.382812-.078124-.085938-.160156-.171875-.238281-.257813-.40625-.445312-.820312-.878906-1.242187-1.304687-.160156-.164063-.324219-.324219-.488282-.484375-.324218-.316406-.65625-.632813-.992187-.941406-.171875-.164063-.347656-.324219-.527344-.484376-.378906-.339843-.765625-.675781-1.15625-1.003906-.125-.105468-.246093-.210937-.371093-.316406-.515626-.417969-1.035157-.828125-1.566407-1.226562-.148437-.113282-.304687-.222657-.457031-.335938-.398438-.289062-.796875-.574219-1.203125-.855469-.191406-.132812-.382813-.257812-.574219-.386719-.402344-.269531-.8125-.53125-1.222656-.785156-.167969-.105468-.339844-.214844-.511719-.316406-.574219-.347656-1.15625-.683594-1.75-1.003906-.089843-.050782-.183593-.097656-.277343-.148438-.507813-.269531-1.019532-.535156-1.539063-.785156-.195313-.097656-.394531-.191406-.59375-.285156-.4375-.203125-.878906-.402344-1.320313-.59375-.203124-.089844-.402343-.175782-.605468-.261719-.546875-.226563-1.09375-.445313-1.648438-.652344-.089844-.03125-.179687-.070312-.269531-.101562-.640625-.234375-1.289063-.453125-1.945313-.65625-.191406-.0625-.382812-.113281-.570312-.171875-.480469-.144532-.964844-.285156-1.453125-.414063-.222656-.058593-.445313-.117187-.667969-.171875-.507812-.125-1.019531-.242187-1.53125-.351562-.175781-.039063-.351562-.082032-.527344-.117188-.683593-.136718-1.371093-.257812-2.066406-.367187-.144531-.023438-.296875-.039063-.441406-.0625-.554688-.078125-1.113281-.148438-1.675781-.210938-.230469-.027343-.457031-.046875-.691407-.066406-.507812-.046875-1.019531-.085937-1.535156-.117187-.214844-.015626-.433594-.027344-.652344-.039063-.71875-.03125-1.4375-.054687-2.164062-.054687-.757812 0-1.503906.019531-2.25.058593-.242188.007813-.476562.03125-.714844.046875-.503906.03125-1.007812.066406-1.507812.113282-.285156.027343-.5625.0625-.84375.09375-.453125.050781-.90625.105468-1.355469.171874-.292969.042969-.585937.085938-.878906.132813-.433594.074219-.867188.152344-1.296875.234375-.289063.054688-.582032.113281-.871094.171875-.433594.09375-.867188.195313-1.296875.300781-.273437.066406-.550781.128906-.820313.203125-.472656.121094-.9375.257813-1.402343.394531-.222657.066407-.449219.128907-.671875.199219-16.367188 5.128907-28.820313 19.078125-31.820313 36.277344zm0 0" fill="url(#C)"/><path d="m.417969 498.980469c-1.566407 4.105469 1.464843 8.503906 5.855469 8.503906h267.082031c4.390625 0 7.417969-4.398437 5.855469-8.503906-3.042969-7.980469-8.226563-14.902344-14.847657-20.074219h-249.097656c-6.621094 5.171875-11.804687 12.09375-14.847656 20.074219zm0 0" fill="url(#D)"/><path d="m462.855469 469.085938c-5.570313 0-10.914063.980468-15.859375 2.78125-4.570313 1.660156-9.675782.449218-13.03125-3.066407-6.378906-6.695312-15.382813-10.867187-25.363282-10.867187-3.15625 0-6.214843.417968-9.125 1.199218-4.316406 1.160157-8.90625-.191406-11.988281-3.429687-12.324219-12.933594-29.710937-20.996094-48.984375-20.996094-23.027344 0-43.371094 11.511719-55.585937 29.097657-2.414063 3.472656-6.410157 5.425781-10.636719 5.300781-.472656-.015625-.941406-.019531-1.414062-.019531-19.824219 0-36.742188 12.417968-43.402344 29.894531-1.566406 4.105469 1.460937 8.503906 5.851562 8.503906h267.085938c4.390625 0 7.417968-4.398437 5.855468-8.503906-6.664062-17.476563-23.578124-29.894531-43.402343-29.894531zm0 0" fill="url(#E)"/><path d="m270.867188 469.085938c-.726563 0-1.449219.019531-2.167969.054687-.21875.007813-.4375.023437-.652344.039063-.515625.03125-1.027344.066406-1.535156.113281-.230469.023437-.460938.042969-.691407.070312-.5625.058594-1.117187.132813-1.675781.210938-.144531.019531-.292969.039062-.441406.0625-.695313.105469-1.382813.230469-2.066406.367187-.175781.035156-.351563.078125-.527344.113282-.511719.109374-1.023437.226562-1.53125.355468-.222656.054688-.445313.113282-.667969.171875-.484375.128907-.96875.269531-1.453125.414063-.1875.054687-.378906.109375-.570312.167968-.65625.207032-1.304688.425782-1.945313.660157-.089844.03125-.179687.070312-.269531.101562-.554687.207031-1.101563.425781-1.648437.652344-.203126.082031-.402344.171875-.605469.257813-.441407.195312-.882813.394531-1.320313.597656-.195312.09375-.394531.1875-.59375.28125-.519531.253906-1.03125.519531-1.539062.789062-.09375.050782-.1875.097656-.277344.144532-.59375.324218-1.175781.660156-1.75 1.007812-.171875.101562-.339844.210938-.511719.316406-.410156.253906-.820312.515625-1.222656.78125-.191406.128906-.382813.257813-.574219.390625-.40625.277344-.808594.5625-1.203125.855469-.152343.113281-.308593.21875-.457031.332031-.53125.398438-1.054688.808594-1.566406 1.230469-.125.101562-.246094.210938-.371094.316406-.394531.328125-.78125.664063-1.160156 1.003906-.175782.160157-.351563.320313-.527344.480469-.332031.3125-.664062.625-.988281.945313-.164063.160156-.332031.320312-.492188.484375-.421875.425781-.835937.859375-1.242187 1.300781-.078125.085938-.15625.175781-.234375.261719-.410157.453125-.808594.914062-1.199219 1.382812-.152344.179688-.300781.367188-.449219.554688-.277343.34375-.550781.6875-.816406 1.039062-.15625.203125-.3125.40625-.460937.613281-.28125.378907-.554688.765626-.820313 1.152344-.117187.167969-.238281.335938-.351563.503906-.359374.535157-.707031 1.082032-1.046874 1.632813-.117188.195313-.230469.398437-.351563.59375-.226563.382813-.449219.769531-.664063 1.160156-.132812.238281-.261718.476563-.386718.714844-.203125.375-.394532.757813-.585938 1.140625-.113281.230469-.230468.457031-.339844.691406-.277343.582032-.546874 1.167969-.796874 1.761719-.078126.179687-.144532.363281-.21875.542969-.164063.394531-.320313.792968-.472657 1.191406-1.464843 4.070312 1.542969 8.390625 5.890625 8.390625h83.277344c-3.808594-21.8125-22.824219-38.398437-45.726562-38.398437zm0 0" fill="url(#F)"/><path d="m406.148438 502.347656c0-18.054687-7.078126-34.460937-18.605469-46.589844-.019531-.019531-.039063-.035156-.054688-.054687-3.082031-3.230469-6.476562-6.160156-10.136719-8.734375-.007812-.003906-.015624-.007812-.019531-.011719-.445312-.3125-.894531-.621093-1.347656-.921875-.03125-.019531-.0625-.039062-.09375-.0625-.425781-.285156-.859375-.566406-1.296875-.839844-.050781-.03125-.097656-.0625-.148438-.09375-.417968-.261718-.839843-.519531-1.265624-.773437-.066407-.042969-.132813-.078125-.199219-.121094-.40625-.242187-.820313-.480469-1.234375-.714843-.082032-.046876-.164063-.09375-.246094-.136719-.402344-.226563-.804688-.445313-1.210938-.664063-.09375-.050781-.191406-.101562-.289062-.152344-.394531-.207031-.789062-.410156-1.1875-.613281-.109375-.054687-.214844-.105469-.324219-.160156-.390625-.191406-.78125-.382813-1.175781-.570313-.117188-.054687-.234375-.109374-.355469-.164062-.386719-.179688-.773437-.355469-1.167969-.527344-.125-.058594-.253906-.113281-.382812-.167968-.382812-.167969-.769531-.332032-1.15625-.492188-.136719-.054688-.273438-.109375-.40625-.164062-.382812-.15625-.769531-.308594-1.15625-.453126-.140625-.054687-.285156-.109374-.425781-.164062-.382813-.144531-.765625-.28125-1.152344-.417969-.148437-.054687-.296875-.105469-.449219-.160156-.382812-.132813-.765625-.257813-1.148437-.382813-.15625-.054687-.3125-.105468-.46875-.152343-.378907-.121094-.761719-.238281-1.148438-.351563-.160156-.050781-.324219-.097656-.484375-.144531-.382812-.113281-.765625-.21875-1.148437-.324219-.167969-.042968-.332031-.089844-.5-.132812-.382813-.101563-.769531-.199219-1.15625-.292969-.167969-.039063-.335938-.082031-.503907-.121094-.386718-.09375-.777343-.179687-1.167968-.265625-.171875-.035156-.339844-.074218-.507813-.109375-.394531-.082031-.792969-.160156-1.1875-.234375-.167969-.03125-.335937-.066406-.503906-.097656-.402344-.070312-.804687-.140625-1.210937-.207031-.164063-.027344-.328126-.054688-.496094-.082031-.414063-.0625-.824219-.121094-1.242188-.179688-.15625-.019531-.316406-.046875-.476562-.066406-.425782-.054688-.859375-.101563-1.289063-.152344-.148437-.015625-.292969-.035156-.441406-.050781-.457031-.046875-.914063-.085938-1.371094-.125-.125-.007813-.246093-.023438-.371093-.03125-.507813-.039063-1.015626-.070313-1.527344-.101563-.078125-.003906-.152344-.007812-.230469-.011718-1.183594-.0625-2.371094-.09375-3.570313-.09375-.671874 0-1.339843.011718-2.003906.03125-.175781.003906-.347656.011718-.523437.019531-.488281.019531-.976563.039062-1.464844.066406-.207031.015625-.414063.027344-.621094.039063-.472656.035156-.941406.070312-1.410156.113281-.191406.015625-.382813.03125-.574219.050781-.578125.054688-1.152344.117188-1.726562.1875-.070313.007812-.140625.015625-.207032.027344-.652343.082031-1.300781.171875-1.949218.273437-.144532.023438-.285156.046875-.429688.070313-.496094.082031-.988281.164062-1.480468.257812-.195313.035156-.390626.074219-.585938.113282-.453125.085937-.902344.179687-1.351562.273437-.1875.042969-.375.082031-.5625.125-.507813.113281-1.015626.234375-1.519532.359375-.117187.027344-.230468.054688-.34375.082031-.628906.164063-1.257812.332031-1.878906.507813-.078125.023437-.15625.046875-.230469.070312-.535156.15625-1.066406.316406-1.59375.484375-.164062.050781-.332031.105469-.496093.160157-.449219.144531-.894532.296874-1.339844.449218-.171875.0625-.339844.121094-.511719.183594-.472656.167969-.945313.34375-1.414063.523438-.121093.046874-.242187.089843-.363281.136718-1.195312.464844-2.371093.964844-3.53125 1.496094-.125.058594-.246093.117188-.367187.175781-.457032.210938-.910156.425781-1.355469.648438-.144531.070312-.289063.140625-.433594.210937-.449219.226563-.898437.460938-1.34375.695313-.113281.058593-.226562.117187-.339843.179687-1.132813.605469-2.246094 1.246094-3.335938 1.914063-.070312.042969-.140625.085937-.207031.128906-.46875.289063-.929688.582031-1.390625.882813-.113282.074218-.226563.148437-.34375.226562-.429688.285156-.859375.574219-1.28125.867188-.101563.070312-.199219.136718-.300782.207031-1.054687.742187-2.09375 1.511719-3.105468 2.3125-.003906.003906-.007813.007812-.015625.011719-.484375.386718-.964844.777343-1.4375 1.175781-.085938.070312-.171875.144531-.257813.214843-.40625.34375-.808594.691407-1.207031 1.042969-.085937.078125-.175781.15625-.261719.234375-.4375.394532-.871094.792969-1.300781 1.195313-.027344.027343-.054687.050781-.082031.074219-.941406.890624-1.855469 1.808593-2.742188 2.75-.0625.066406-.125.136718-.1875.203124-.371094.398438-.738281.796876-1.101562 1.203126-.078125.089843-.15625.179687-.234375.265624-.371094.417969-.734375.84375-1.09375 1.273438-.046875.054688-.097657.109375-.144531.167969-.828126.992187-1.628907 2.011719-2.398438 3.050781-.042969.058594-.085938.121094-.128906.179688-.332032.445312-.652344.898437-.972656 1.355468-7.660157 10.960938-12.15625 24.300782-12.15625 38.691406 0 1.726563.066406 3.4375.191406 5.132813h134.898437c.125-1.695313.191407-3.40625.191407-5.136719zm0 0" fill="url(#G)"/><path d="m417.128906 507.484375h83.273438c4.351562 0 7.355468-4.320313 5.890625-8.386719-.152344-.402344-.308594-.796875-.46875-1.191406-.074219-.183594-.144531-.363281-.21875-.542969-.253907-.597656-.523438-1.183593-.800781-1.765625-.109376-.230468-.226563-.460937-.339844-.691406-.1875-.382812-.382813-.761719-.582032-1.140625-.128906-.238281-.257812-.476563-.386718-.714844-.21875-.390625-.441406-.773437-.667969-1.15625-.117187-.199219-.230469-.402343-.351563-.597656-.339843-.550781-.6875-1.097656-1.046874-1.632813-.113282-.167968-.234376-.332031-.347657-.5-.269531-.390624-.542969-.777343-.824219-1.15625-.148437-.207031-.304687-.410156-.457031-.613281-.269531-.351562-.542969-.695312-.820312-1.039062-.148438-.1875-.296875-.371094-.449219-.554688-.390625-.46875-.789062-.929687-1.195312-1.382812-.082032-.085938-.160157-.171875-.238282-.257813-.40625-.445312-.820312-.878906-1.242187-1.304687-.160157-.164063-.328125-.324219-.492188-.484375-.324219-.316406-.65625-.632813-.988281-.941406-.175781-.164063-.351562-.324219-.527344-.484376-.382812-.339843-.769531-.675781-1.160156-1.003906-.125-.105468-.246094-.210937-.371094-.316406-.511718-.417969-1.035156-.828125-1.566406-1.226562-.148438-.113282-.304688-.222657-.457031-.335938-.398438-.289062-.796875-.574219-1.203125-.855469-.191406-.132812-.382813-.257812-.574219-.386719-.40625-.269531-.8125-.53125-1.222656-.785156-.171875-.105468-.339844-.214844-.511719-.316406-.578125-.347656-1.15625-.683594-1.75-1.003906-.089844-.050782-.183594-.097656-.277344-.148438-.507812-.269531-1.019531-.535156-1.539062-.785156-.199219-.097656-.398438-.191406-.597656-.285156-.433594-.203125-.875-.402344-1.320313-.59375-.199219-.089844-.402344-.175782-.605469-.261719-.542968-.226563-1.09375-.445313-1.648437-.652344-.085938-.03125-.175781-.070312-.265625-.101562-.640625-.234375-1.292969-.453125-1.949219-.65625-.1875-.0625-.378906-.113281-.566406-.171875-.484375-.144532-.96875-.285156-1.457031-.414063-.21875-.058593-.441407-.117187-.667969-.171875-.503907-.125-1.015625-.242187-1.527344-.351562-.175781-.039063-.351563-.082032-.53125-.117188-.679687-.136718-1.367187-.257812-2.0625-.367187-.148437-.023438-.296875-.039063-.445313-.0625-.554687-.078125-1.109374-.148438-1.671874-.210938-.230469-.027343-.460938-.046875-.691407-.066406-.507812-.046875-1.019531-.085937-1.535156-.117187-.21875-.015626-.433594-.027344-.652344-.039063-.71875-.03125-1.441406-.054687-2.167969-.054687-.753906 0-1.503906.019531-2.246093.058593-.242188.007813-.480469.03125-.71875.046875-.503907.03125-1.007813.066406-1.507813.113282-.28125.027343-.558594.0625-.839844.09375-.457031.050781-.90625.105468-1.355468.171874-.292969.042969-.585938.085938-.878906.132813-.433594.074219-.867188.152344-1.296876.234375-.292968.054688-.582031.113281-.871093.171875-.433594.09375-.867188.195313-1.296875.300781-.273438.066406-.550782.128906-.824219.203125-.46875.121094-.933594.257813-1.398437.394531-.222657.066407-.449219.128907-.671876.199219-16.363281 5.128907-28.816406 19.078125-31.816406 36.277344zm0 0" fill="url(#H)"/><path d="m227.464844 498.980469c-1.566406 4.105469 1.460937 8.503906 5.851562 8.503906h267.085938c4.390625 0 7.417968-4.398437 5.855468-8.503906-3.042968-7.980469-8.230468-14.902344-14.851562-20.074219h-249.09375c-6.621094 5.171875-11.804688 12.09375-14.847656 20.074219zm0 0" fill="url(#I)"/></svg>