<svg viewBox="0 -15 512.00003 512" xmlns="http://www.w3.org/2000/svg" xmlns:xlink="http://www.w3.org/1999/xlink"><linearGradient id="a"><stop offset="0" stop-color="#4e6d79"/><stop offset="1" stop-color="#2b4c56"/></linearGradient><linearGradient id="b" gradientUnits="userSpaceOnUse" x1="241.01910576" x2="502.69888512" xlink:href="#a" y1="332.13855912" y2="332.13855912"/><linearGradient id="c"><stop offset="0" stop-color="#ffb92d"/><stop offset="1" stop-color="#f59500"/></linearGradient><linearGradient id="d" gradientUnits="userSpaceOnUse" x1="288.22643592" x2="455.49155496" xlink:href="#c" y1="266.84962584" y2="266.84962584"/><linearGradient id="e"><stop offset="0" stop-color="#fff9b4"/><stop offset="1" stop-color="#fff465"/></linearGradient><linearGradient id="f" gradientUnits="userSpaceOnUse" x1="288.22643592" x2="455.49155496" xlink:href="#e" y1="236.8755864" y2="236.8755864"/><linearGradient id="g" gradientUnits="userSpaceOnUse" x1="356.89456392" x2="388.01407608" xlink:href="#a" y1="181.3487712" y2="213.43305048"/><linearGradient id="h" gradientUnits="userSpaceOnUse" x1="371.85899544" x2="371.85899544" xlink:href="#a" y1="174.0954492" y2="197.31913056"/><linearGradient id="i" gradientUnits="userSpaceOnUse" x1="326.98577928" x2="232.97168304" y1="479.2118352" y2="385.19773896"><stop offset="0" stop-color="#2b4c56" stop-opacity="0"/><stop offset="1" stop-color="#2b4c56"/></linearGradient><linearGradient id="j" gradientUnits="userSpaceOnUse" x1="9.30031488" x2="321.3497724" xlink:href="#a" y1="304.23460272" y2="304.23460272"/><linearGradient id="k" gradientUnits="userSpaceOnUse" x1="65.59512888" x2="265.05596232" xlink:href="#c" y1="226.37859888" y2="226.37859888"/><linearGradient id="l" gradientUnits="userSpaceOnUse" x1="65.59512888" x2="265.05596232" xlink:href="#e" y1="190.6350312" y2="190.6350312"/><linearGradient id="m" gradientUnits="userSpaceOnUse" x1="161.83391184" x2="181.49267328" xlink:href="#a" y1="135.92841864" y2="174.72089136"/><linearGradient id="n" gradientUnits="userSpaceOnUse" x1="165.3255456" x2="165.3255456" xlink:href="#a" y1="113.06614848" y2="142.73399232"/><linearGradient id="o" gradientUnits="userSpaceOnUse" x1="255.9996" x2="255.9996" xlink:href="#c" y1="453.48437736" y2="489.98088504"/><linearGradient id="p"><stop offset="0" stop-color="#acfcd9"/><stop offset="1" stop-color="#53d6be"/></linearGradient><linearGradient id="q" gradientUnits="userSpaceOnUse" x1="220.27912248" x2="252.88544016" xlink:href="#p" y1="55.65095976" y2="127.68824328"/><linearGradient id="r"><stop offset="0" stop-color="#53d6be" stop-opacity="0"/><stop offset=".2513" stop-color="#51b4a7" stop-opacity=".25098"/><stop offset=".5767" stop-color="#508d8e" stop-opacity=".576471"/><stop offset=".8378" stop-color="#4e767f" stop-opacity=".839216"/><stop offset="1" stop-color="#4e6d79"/></linearGradient><linearGradient id="s" gradientUnits="userSpaceOnUse" x1="277.2274884" x2="189.46580592" xlink:href="#r" y1="44.00649168" y2="-32.1398364"/><linearGradient id="t" gradientUnits="userSpaceOnUse" x1="235.29375" x2="214.90011912" xlink:href="#r" y1="35.60368128" y2="2.14603944"/><linearGradient id="u" gradientUnits="userSpaceOnUse" x1="196.82453952" x2="181.1724228" xlink:href="#r" y1="85.90810464" y2="-7.55684736"/><linearGradient id="v" gradientUnits="userSpaceOnUse" x1="165.68394504" x2="165.68394504" xlink:href="#r" y1="125.24871768" y2="157.37817336"/><linearGradient id="w" gradientUnits="userSpaceOnUse" x1="377.99395056" x2="413.49155784" xlink:href="#p" y1="145.13135328" y2="197.2910208"/><linearGradient id="x" gradientUnits="userSpaceOnUse" x1="381.98553648" x2="387.26113608" xlink:href="#r" y1="157.38319296" y2="87.8436624"/><linearGradient id="y" gradientUnits="userSpaceOnUse" x1="379.25888976" x2="331.31568624" xlink:href="#r" y1="198.80091648" y2="154.13551176"/><linearGradient id="z" gradientUnits="userSpaceOnUse" x1="372.6701628" x2="372.6701628" xlink:href="#r" y1="183.93587304" y2="207.11237016"/><linearGradient id="A" gradientUnits="userSpaceOnUse" x1="410.65046424" x2="428.88365928" xlink:href="#r" y1="171.5605512" y2="152.7822276"/><linearGradient id="B" gradientUnits="userSpaceOnUse" x1="287.22351984" x2="290.23026024" xlink:href="#p" y1="110.65172088" y2="133.36942656"/><linearGradient id="C" gradientUnits="userSpaceOnUse" x1="312.64779384" x2="314.3223324" xlink:href="#p" y1="98.82855504" y2="111.47694312"/><linearGradient id="D" gradientUnits="userSpaceOnUse" x1="404.54863848" x2="406.22317704" xlink:href="#p" y1="111.90059736" y2="124.54898544"/><linearGradient id="E" gradientUnits="userSpaceOnUse" x1="428.1869388" x2="429.86047344" xlink:href="#p" y1="110.50012896" y2="123.14751312"/><path d="m490.949219 477.105469h-238.179688c-8.785156 0-14.453125-9.296875-10.433593-17.109375l3.457031-6.71875c27.882812-54.183594 42.433593-114.253906 42.433593-175.195313v-81.386719c.382813-5.265624 37.679688-9.523437 83.632813-9.523437s83.25 4.257813 83.632813 9.523437v81.386719c0 60.941407 14.550781 121.011719 42.433593 175.195313l3.457031 6.71875c4.019532 7.8125-1.648437 17.109375-10.433593 17.109375zm0 0" fill="url(#b)"/><path d="m455.492188 252.554688v19.070312c-.382813 5.265625-37.679688 9.523438-83.632813 9.523438s-83.25-4.257813-83.632813-9.523438v-19.070312c.355469 4.867187 32.257813 8.875 73.382813 9.457031h.171875.019531c3.292969-.042969 6.648438-.070313 10.058594-.070313s6.765625.027344 10.058594.070313h.015625.175781c41.125-.582031 73.027344-4.59375 73.382813-9.457031zm0 0" fill="url(#d)"/><path d="m455.492188 222.582031v19.070313c-.382813 5.265625-37.679688 9.519531-83.632813 9.519531s-83.25-4.253906-83.632813-9.519531v-19.070313c.355469 4.863281 32.257813 8.875 73.382813 9.457031h.171875.019531c3.292969-.046874 6.648438-.074218 10.058594-.074218s6.765625.027344 10.058594.074218h.015625.175781c41.125-.582031 73.027344-4.59375 73.382813-9.457031zm0 0" fill="url(#f)"/><path d="m455.5 196.777344c0 .027344 0 .054687-.007812.082031-.382813 5.265625-37.679688 9.523437-83.632813 9.523437s-83.25-4.257812-83.632813-9.523437c-.007812-.027344-.007812-.054687-.007812-.082031s0-.054688.007812-.082032c.382813-5.265624 37.679688-9.519531 83.632813-9.519531s83.25 4.253907 83.632813 9.519531c.007812.027344.007812.054688.007812.082032zm0 0" fill="url(#g)"/><path d="m442.742188 195.503906c0 .015625 0 .03125-.007813.046875-.324219 3.023438-31.929687 5.464844-70.875 5.464844s-70.550781-2.445313-70.875-5.464844c-.007813-.015625-.007813-.03125-.007813-.046875s0-.03125.007813-.046875c.324219-3.023437 31.929687-5.46875 70.875-5.46875s70.550781 2.445313 70.875 5.46875c.007813.011719.007813.03125.007813.046875zm0 0" fill="url(#h)"/><path d="m280.300781 355.546875c-7 33.875-18.574219 66.765625-34.507812 97.730469l-3.457031 6.71875c-4.019532 7.8125 1.648437 17.109375 10.433593 17.109375h149.085938zm0 0" fill="url(#i)"/><path d="m307.339844 477.105469h-284.03125c-10.472656 0-17.230469-11.085938-12.4375-20.402344l4.121094-8.011719c33.25-64.613281 50.601562-136.246094 50.601562-208.917968v-97.054688c.457031-6.277344 44.929688-11.351562 99.730469-11.351562s99.273437 5.074218 99.730469 11.351562v97.054688c0 72.671874 17.351562 144.304687 50.601562 208.917968l4.121094 8.011719c4.796875 9.316406-1.960938 20.402344-12.4375 20.402344zm0 0" fill="url(#j)"/><path d="m265.054688 209.332031v22.742188c-.453126 6.277343-44.929688 11.351562-99.730469 11.351562-54.796875 0-99.273438-5.074219-99.730469-11.351562v-22.742188c.425781 5.800781 38.46875 10.582031 87.507812 11.277344h.207032.023437c3.925781-.054687 7.925781-.085937 11.992188-.085937 4.070312 0 8.070312.03125 11.996093.085937h.023438.203125c49.042969-.691406 87.085937-5.476563 87.507813-11.277344zm0 0" fill="url(#k)"/><path d="m265.054688 173.585938v22.742187c-.453126 6.28125-44.929688 11.355469-99.730469 11.355469-54.796875 0-99.273438-5.074219-99.730469-11.355469v-22.742187c.425781 5.804687 38.46875 10.585937 87.507812 11.28125h.207032.023437c3.925781-.054688 7.925781-.085938 11.992188-.085938 4.070312 0 8.070312.03125 11.996093.085938h.023438.203125c49.042969-.695313 87.085937-5.476563 87.507813-11.28125zm0 0" fill="url(#l)"/><path d="m265.066406 142.820312c0 .03125 0 .0625-.011718.097657-.457032 6.277343-44.929688 11.351562-99.730469 11.351562s-99.273438-5.074219-99.730469-11.351562c-.011719-.035157-.011719-.066407-.011719-.097657 0-.035156 0-.066406.011719-.097656.457031-6.28125 44.929688-11.355468 99.730469-11.355468s99.273437 5.074218 99.730469 11.355468c.011718.03125.011718.0625.011718.097656zm0 0" fill="url(#m)"/><path d="m249.851562 141.296875c0 .019531 0 .039063-.007812.054687-.386719 3.605469-38.078125 6.519532-84.519531 6.519532-46.441407 0-84.132813-2.914063-84.515625-6.519532-.011719-.015624-.011719-.035156-.011719-.054687s0-.035156.011719-.054687c.382812-3.605469 38.074218-6.519532 84.515625-6.519532 46.441406 0 84.132812 2.914063 84.519531 6.519532.007812.019531.007812.035156.007812.054687zm0 0" fill="url(#n)"/><path d="m492.488281 481.441406h-472.976562c-10.777344 0-19.511719-8.734375-19.511719-19.511718 0-10.773438 8.734375-19.511719 19.511719-19.511719h472.976562c10.777344 0 19.511719 8.738281 19.511719 19.511719 0 10.777343-8.734375 19.511718-19.511719 19.511718zm0 0" fill="url(#o)"/><path d="m283.65625 0c-.511719 0-1.019531.0117188-1.53125.0234375h-.054688c-.488281.0195313-.984374.0429687-1.472656.0742187-.402344.0234378-.800781.0546878-1.203125.0859378-.273437.023437-.542969.042968-.804687.078125-.886719.085937-1.777344.195312-2.644532.335937-.445312.0625-.878906.140625-1.3125.226563-.488281.085937-.976562.183593-1.464843.292969-.390625.078124-.78125.175781-1.160157.261718-.574218.140625-1.136718.28125-1.703124.445313-.390626.105469-.78125.214843-1.160157.335937-.195312.054688-.390625.117188-.574219.183594-.359374.109375-.703124.226562-1.050781.347656-.488281.164063-.964843.335938-1.445312.519532-.433594.164062-.855469.339843-1.277344.511718-.414063.164063-.824219.335938-1.226563.519532-2.234374.988281-4.394531 2.148437-6.441406 3.449218-.402344.261719-.804687.523438-1.195312.78125-.402344.273438-.789063.542969-1.179688.824219-.761718.542969-1.488281 1.105469-2.214844 1.679687-.390624.316407-.78125.640626-1.160156.976563-.359375.304687-.703125.617187-1.0625.933594-.011718 0-.011718 0-.011718.011719-1.050782.964843-2.0625 1.972656-3.035157 3.015624-.328125.34375-.640625.703126-.957031 1.0625-.941406 1.070313-1.832031 2.1875-2.679688 3.351563 0 0 0 0-.007812 0-.054688-.042969-.109375-.078125-.175781-.109375-.226563-.164062-.453125-.304688-.691407-.445312-.085937-.054688-.1875-.109376-.292968-.164063-.175782-.105469-.359375-.203125-.554688-.304687-.238281-.128907-.488281-.246094-.75-.355469-.171875-.085938-.355468-.164063-.539062-.226563-.140625-.066406-.292969-.132812-.445313-.175781-.800781-.3125-1.636719-.550781-2.503906-.726563-.261719-.054687-.53125-.109374-.792969-.140624-.28125-.042969-.554687-.085938-.835937-.109376-.269531-.03125-.554688-.054687-.824219-.066406-.292969-.007812-.574219-.019531-.867188-.019531-.28125 0-.574218.011719-.855468.019531 0 0 0 0-.011719 0-.269531.011719-.554687.035156-.824219.066406-.28125.023438-.554687.066407-.835937.109376-.269531.03125-.542969.085937-.8125.140624-.542969.109376-1.085938.25-1.605469.421876-.261719.078124-.511719.152343-.75.25-.148438.042968-.292969.097656-.421875.164062-.117187.042969-.25.097656-.367187.148438-.402344.164062-.792969.347656-1.171876.554687-.183593.097656-.367187.195313-.5625.304687-.75.421876-1.457031.910157-2.117187 1.441407-.5.402343-.976563.824219-1.429687 1.28125-.292969.304687-.585938.617187-.867188.945312-.132812.160157-.273438.324219-.402344.496094-.132812.164063-.261718.335937-.390625.511719-.628906.867187-1.171875 1.789062-1.628906 2.777344-.269531.585937-.496094 1.191406-.703125 1.808593h-.011719c-3.210937-1.355469-6.722656-2.101562-10.433593-2.101562-14.800782 0-26.796876 12.003906-26.796876 26.808593 0 2.15625.261719 4.25.75 6.277344v.011719c-2.484374 1.148437-4.828124 2.558594-6.996093 4.1875-.359375.269531-.714844.550781-1.0625.835937-.707031.5625-1.390625 1.160157-2.050781 1.765626-.652344.617187-1.292969 1.257812-1.910157 1.910156-.304687.335937-.605469.671875-.910156 1.007812-.292969.335938-.585937.683594-.867187 1.03125-.519532.640625-1.019532 1.300782-1.507813 1.972656-.3125.433594-.605469.867188-.890625 1.3125-.214844.335938-.433594.671876-.648438 1.019532-.5.824218-.964843 1.660156-1.398437 2.515625-.207031.402343-.402344.8125-.597656 1.226562-.140625.304688-.28125.605469-.414063.910157-.140625.316406-.269531.640624-.398437.964843-.609375 1.496094-1.117188 3.027344-1.53125 4.601563-.097657.367187-.195313.746094-.28125 1.113281-.066407.316406-.140625.628906-.195313.945313-.066406.3125-.128906.628906-.183594.941406-.011718.035156-.011718.066406-.023437.097656-.054687.339844-.109375.683594-.160156 1.03125-.078125.476562-.132813.945312-.1875 1.421875-.054688.464844-.097657.941406-.128907 1.410156-.023437.300781-.042968.605469-.054687.898438-.023437.28125-.03125.574219-.03125.855469-.011719.378906-.023437.761718-.023437 1.140624 0 .574219.011718 1.148438.042968 1.710938.023438.566406.054688 1.128906.109375 1.695312.042969.550782.109375 1.113282.183594 1.667969.078125.554688.152344 1.105469.25 1.648438-13.535156 2.546875-23.792969 14.433593-23.792969 28.71875 0 1.570312.128906 3.121093.367188 4.628906.738281 4.621094 2.550781 8.882813 5.195312 12.503906 7.40625.175781 15.226563.261719 23.316406.261719 8.363282 0 16.429688-.097656 24.054688-.273438 2.625-3.621093 4.433594-7.863281 5.171875-12.46875.078125-.511718.152344-1.03125.207031-1.554687v-.007813c.292969.03125.597656.050782.890625.074219.886719.066407 1.796875.097657 2.710938.097657.910156 0 1.808593-.03125 2.699219-.097657.421874-.023437.847656-.066406 1.257812-.097656.53125-.054687 1.0625-.117187 1.582031-.203125.347657-.046875.6875-.097656 1.03125-.164062.097657-.011719.183594-.023438.273438-.042969.800781-.140625 1.59375-.304688 2.382812-.5.835938-.207031 1.671875-.445313 2.496094-.703125.414063-.132813.824219-.273438 1.226563-.414063 1.214843-.433593 2.394531-.921875 3.554687-1.472656 3.460937-1.628906 6.648437-3.773437 9.457031-6.3125.023438-.011719.035156-.023437.054688-.042969.910156-.835937 1.78125-1.714844 2.625-2.625v-.011718c.28125-.3125.566406-.628907.835937-.941407.269531-.328125.542969-.652343.800781-.976562.519532-.660157 1.03125-1.34375 1.507813-2.027344.726563-1.042969 1.402344-2.125 2.019531-3.234375 4.414063 3.179688 9.8125 5.054688 15.660156 5.054688 12.710938 0 23.335938-8.847657 26.101563-20.714844v-.007813c.792969.148438 1.585937.292969 2.375.410157.792969.128906 1.605469.230468 2.417969.304687.792968.089844 1.585937.140625 2.386718.183594.847657.042969 1.691407.066406 2.550782.066406 27.382812 0 49.582031-22.199219 49.582031-49.582031 0-27.386719-22.195313-49.589844-49.578125-49.589844zm0 0" fill="url(#q)"/><path d="m333.234375 49.582031c0 27.382813-22.199219 49.582031-49.582031 49.582031-27.382813 0-49.578125-22.199218-49.578125-49.582031 0-27.382812 22.195312-49.582031 49.578125-49.582031 27.382812 0 49.582031 22.199219 49.582031 49.582031zm0 0" fill="url(#s)"/><path d="m250.925781 34.054688c0 9.15625-7.421875 16.574218-16.574219 16.574218-9.15625 0-16.574218-7.417968-16.574218-16.574218 0-9.152344 7.417968-16.574219 16.574218-16.574219 9.152344 0 16.574219 7.421875 16.574219 16.574219zm0 0" fill="url(#t)"/><path d="m237.058594 95.039062c0 21.375-17.328125 38.703126-38.703125 38.703126s-38.703125-17.328126-38.703125-38.703126c0-21.378906 17.328125-38.703124 38.703125-38.703124s38.703125 17.324218 38.703125 38.703124zm0 0" fill="url(#u)"/><path d="m165.683594 101.242188c-1.863282 0-3.679688.179687-5.445313.511718v.003906c-7.570312 1.425782-14.113281 5.777344-18.410156 11.828126-.042969.0625-.085937.121093-.128906.183593-.433594.617188-.839844 1.253907-1.222657 1.90625-.050781.085938-.101562.175781-.152343.261719-.375.652344-.726563 1.316406-1.050781 1.996094-.035157.074218-.066407.148437-.101563.222656-.304687.65625-.589844 1.328125-.84375 2.007812-.027344.074219-.058594.144532-.085937.214844-.25.679688-.46875 1.375-.667969 2.078125-.046875.15625-.09375.3125-.136719.472657-.179688.671874-.332031 1.355468-.464844 2.046874-.035156.1875-.066406.378907-.101562.570313-.117188.6875-.214844 1.386719-.28125 2.089844-.015625.183593-.027344.367187-.042969.546875-.050781.675781-.085937 1.359375-.089844 2.050781 0 .078125-.007812.160156-.007812.242187 0 .105469.007812.207032.011719.3125.003906.570313.027343 1.136719.066406 1.703126.015625.195312.027344.394531.046875.589843.058593.652344.132812 1.300781.230469 1.9375.027343.175781.0625.347657.09375.519531.0625.359376.125.714844.203124 1.066407.042969.207031.09375.410156.140626.613281.078124.324219.15625.644531.242187.960938.058594.207031.117187.417968.175781.625.09375.3125.191406.621093.296875.929687.066407.199219.128907.398437.203125.597656.121094.34375.253906.683594.390625 1.019531.058594.152344.113281.304688.175781.453126.203126.476562.414063.949218.640626 1.414062.054687.113281.117187.222656.175781.335938.183593.371093.375.734374.574219 1.09375.066406.121093.132812.238281.203124.355468.214844.375.433594.746094.667969 1.109375.042969.066407.085938.136719.132813.203125.285156.441406.578125.875.886718 1.296875 7.40625.171875 15.226563.257813 23.316407.257813 8.359375 0 16.425781-.097656 24.046875-.269532.066406-.09375.132812-.183593.199218-.277343.199219-.285157.394532-.574219.585938-.863281.109375-.164063.214844-.332032.316406-.496094.175782-.277344.347656-.5625.511719-.851563.101563-.171875.203125-.339843.296875-.515625.171875-.308594.335938-.621094.492188-.9375.078124-.152344.164062-.304687.238281-.460937.21875-.453125.429687-.914063.625-1.378907.074219-.183593.144531-.367187.214843-.550781.121094-.300781.242188-.605469.351563-.914062.078125-.222657.152344-.445313.226563-.667969.09375-.277344.183593-.558594.265624-.839844.070313-.230468.136719-.46875.199219-.703125.078125-.28125.148438-.566406.214844-.851562.058594-.234375.117187-.472657.164063-.710938.066406-.304687.121093-.613281.179687-.921875.039063-.226562.082031-.445312.117187-.671875.027344-.175781.046876-.355469.070313-.53125.179687-1.304687.277344-2.628906.277344-3.980469 0-16.148437-13.085938-29.234374-29.234375-29.234374zm0 0" fill="url(#v)"/><path d="m422.089844 168.066406c.066406.246094.132812.484375.1875.734375.019531.042969.019531.089844.03125.132813.042968.226562.085937.464844.117187.703125.042969.261719.066407.53125.085938.8125.023437.273437.035156.542969.035156.824219 0 6.421874-5.207031 11.625-11.625 11.625-.804687 0-1.585937-.085938-2.332031-.238282-.195313-.03125-.382813-.074218-.566406-.128906-.128907-.035156-.257813-.066406-.378907-.109375-.128906-.03125-.25-.078125-.378906-.121094-.164063-.054687-.324219-.105469-.488281-.171875-.324219-.121094-.640625-.261718-.945313-.414062-.300781-.152344-.605469-.3125-.898437-.488282-.574219-.355468-1.128906-.757812-1.636719-1.203124-.023437.011718-.035156.03125-.042969.054687-.304687.316406-.597656.628906-.902344.933594-.292968.292969-.585937.574219-.890624.84375-.074219.078125-.140626.132812-.203126.195312-.652343.585938-1.324218 1.152344-2.03125 1.671875-.398437.304688-.8125.597656-1.222656.878906-.285156.183594-.578125.367188-.867187.550782-.175781.109375-.347657.21875-.523438.316406-.269531.171875-.550781.324219-.835937.476562-.214844.121094-.433594.238282-.648438.347657-.933594.488281-1.886718.921875-2.863281 1.289062-.261719.109375-.511719.195313-.769531.292969-.359375.128906-.714844.25-1.074219.359375h-.011719c.066406.214844.140625.445313.195313.671875.066406.214844.121093.445312.175781.671875.050781.207031.09375.414063.128906.617187h.011719c.011719.023438.011719.054688.011719.078126.050781.238281.097656.488281.128906.738281.054688.355469.097656.714843.128906 1.082031.023438.21875.042969.433594.054688.664062 0 .0625.011718.128907.011718.203126.011719.292968.023438.585937.023438.878906 0 2.460937-.476562 4.828125-1.367188 6.984375-5.757812.121093-11.820312.183593-18.054687.183593-5.652344 0-11.148437-.054687-16.421875-.148437-.886719-2.171875-1.375-4.535156-1.375-7.019531 0-.347656.007812-.683594.03125-1.019532.042969-.910156.152344-1.789062.335938-2.65625 0 0 0-.011718.011718 0 .011719-.109374.03125-.207031.054688-.304687v-.03125c.074218-.316406.148437-.628906.238281-.933594.074219-.304687.171875-.605469.269531-.898437 0-.035156.011719-.066406.03125-.089844.097656-.292969.207032-.574219.316406-.867188.117188-.300781.25-.59375.378907-.886718.402343-.878906.867187-1.714844 1.386719-2.515625.878906-1.324219 1.921874-2.539063 3.105468-3.601563.007813-.011718-.011718-.011718-.011718-.011718v-.011719c0-.011719-.011719-.011719-.011719-.011719-.640625-.695312-1.226563-1.410156-1.777344-2.15625-.285156-.378906-.554687-.761719-.816406-1.152344-.257813-.378906-.507813-.777344-.757813-1.179687-.207031-.335938-.414062-.683594-.605468-1.042969-.089844-.160156-.1875-.335938-.273438-.507812-.128906-.242188-.25-.476563-.367188-.726563-.078124-.140625-.152343-.292969-.21875-.457031-.128906-.261719-.25-.519532-.355468-.792969-.066406-.140625-.132813-.292969-.195313-.457031-.132812-.3125-.261719-.636719-.378906-.972656-.035156-.066407-.054687-.144532-.085937-.21875-.140626-.402344-.285157-.800782-.402344-1.214844-.023438-.023438-.035156-.054688-.035156-.097656-.117188-.378907-.226563-.757813-.324219-1.148438-.03125-.085938-.054688-.183594-.074219-.28125-.121094-.433594-.21875-.871094-.304688-1.3125-.097656-.464844-.183593-.933594-.261718-1.410156v-.03125c-.074219-.480469-.136719-.964844-.183594-1.453125-.03125-.292969-.054688-.597657-.074219-.902344-.023437-.214844-.035156-.433594-.042969-.660156-.023437-.46875-.035156-.933594-.035156-1.410157 0-16.082031 13.046875-29.121093 29.132813-29.121093 1.007812 0 1.996093.054687 2.980469.152343.488281.042969.976562.109376 1.453124.1875.433594.0625.859376.140626 1.28125.226563.433594.085937.867188.183594 1.300782.28125.03125.011719.066406.023437.097656.023437.21875.066407.433594.117188.640625.183594.300781.074219.605469.164063.910156.261719.433594.128906.867188.28125 1.300781.433594.390626.140625.78125.292969 1.171876.464843.402343.164063.792968.335938 1.171874.507813.421876.195313.835938.402344 1.234376.621094.402343.214843.804687.433593 1.195312.660156.789062.46875 1.550781.964844 2.285156 1.496094.371094.261719.726563.542969 1.085938.824219.292968.230468.574218.46875.855468.707031.097657.074219.195313.160156.292969.25.304688.269531.609375.550781.902344.832031 3.351563-5.496094 9.390625-9.171875 16.296875-9.171875 10.566406 0 19.121094 8.554687 19.121094 19.105469 0 9.234375-6.550782 16.9375-15.25 18.726562zm0 0" fill="url(#w)"/><path d="m410.882812 160.421875c0 16.085937-13.039062 29.125-29.125 29.125-16.085937 0-29.128906-13.039063-29.128906-29.125s13.042969-29.125 29.128906-29.125c16.085938 0 29.125 13.039063 29.125 29.125zm0 0" fill="url(#x)"/><path d="m391.28125 193.84375c0 2.460938-.476562 4.824219-1.367188 6.984375-5.757812.117187-11.820312.183594-18.054687.183594-5.652344 0-11.148437-.054688-16.421875-.152344-.886719-2.167969-1.375-4.53125-1.375-7.015625 0-.347656.007812-.683594.03125-1.019531.042969-.910157.152344-1.789063.335938-2.65625.011718-.097657.03125-.207031.066406-.304688v-.03125c.074218-.316406.148437-.632812.238281-.933593.074219-.304688.171875-.609376.269531-.902344 0-.03125.011719-.0625.03125-.085938.097656-.292968.207032-.574218.316406-.867187.117188-.304688.25-.59375.378907-.890625.390625-.875.847656-1.722656 1.386719-2.515625.871093-1.34375 1.910156-2.558594 3.09375-3.609375v-.011719c3.296874-2.972656 7.667968-4.78125 12.460937-4.78125 8.328125 0 15.367187 5.464844 17.742187 13h.011719c.0625.21875.128907.445313.183594.675781.066406.214844.117187.445313.171875.671875.054688.207031.097656.414063.140625.617188.011719.023437.011719.054687.011719.078125.054687.238281.097656.488281.132812.734375.050782.359375.09375.71875.128906 1.085937.023438.214844.042969.433594.054688.660156 0 .066407.011719.132813.011719.207032.007812.292968.019531.585937.019531.878906zm0 0" fill="url(#y)"/><path d="m391.28125 193.84375c0 2.460938-.476562 4.824219-1.367188 6.984375-5.757812.117187-11.820312.183594-18.054687.183594-5.652344 0-11.148437-.054688-16.421875-.152344-.886719-2.167969-1.375-4.53125-1.375-7.015625 0-.347656.007812-.683594.03125-1.019531.042969-.910157.152344-1.789063.335938-2.65625.011718-.097657.03125-.207031.066406-.304688v-.03125c.074218-.316406.148437-.632812.238281-.933593.074219-.304688.171875-.609376.269531-.902344 0-.03125.011719-.0625.03125-.085938.097656-.292968.207032-.574218.316406-.867187.117188-.304688.25-.59375.378907-.890625.390625-.875.847656-1.722656 1.386719-2.515625.871093-1.34375 1.910156-2.558594 3.09375-3.609375v-.011719c3.296874-2.972656 7.667968-4.78125 12.460937-4.78125 8.328125 0 15.367187 5.464844 17.742187 13h.011719c.0625.21875.128907.445313.183594.675781.066406.214844.117187.445313.171875.671875.054688.207031.097656.414063.140625.617188.011719.023437.011719.054687.011719.078125.054687.238281.097656.488281.132812.734375.050782.359375.09375.71875.128906 1.085937.023438.214844.042969.433594.054688.660156 0 .066407.011719.132813.011719.207032.007812.292968.019531.585937.019531.878906zm0 0" fill="url(#z)"/><path d="m422.546875 171.277344c0 6.417968-5.203125 11.621094-11.621094 11.621094s-11.621093-5.203126-11.621093-11.621094c0-6.417969 5.203124-11.621094 11.621093-11.621094s11.621094 5.203125 11.621094 11.621094zm0 0" fill="url(#A)"/><path d="m302.832031 122.980469c0 7.722656-6.257812 13.980469-13.976562 13.980469s-13.980469-6.257813-13.980469-13.980469c0-7.71875 6.261719-13.976563 13.980469-13.976563s13.976562 6.257813 13.976562 13.976563zm0 0" fill="url(#B)"/><path d="m321.339844 105.691406c0 4.300782-3.484375 7.785156-7.78125 7.785156-4.300782 0-7.785156-3.484374-7.785156-7.785156 0-4.296875 3.484374-7.78125 7.785156-7.78125 4.296875 0 7.78125 3.484375 7.78125 7.78125zm0 0" fill="url(#C)"/><path d="m413.238281 118.765625c0 4.296875-3.480469 7.78125-7.78125 7.78125-4.296875 0-7.78125-3.484375-7.78125-7.78125s3.484375-7.78125 7.78125-7.78125c4.300781 0 7.78125 3.484375 7.78125 7.78125zm0 0" fill="url(#D)"/><path d="m436.878906 117.363281c0 4.300781-3.484375 7.785157-7.78125 7.785157-4.300781 0-7.785156-3.484376-7.785156-7.785157 0-4.296875 3.484375-7.78125 7.785156-7.78125 4.296875 0 7.78125 3.484375 7.78125 7.78125zm0 0" fill="url(#E)"/></svg>