<svg viewBox="-10 0 512 512.00003" xmlns="http://www.w3.org/2000/svg" xmlns:xlink="http://www.w3.org/1999/xlink"><linearGradient id="a"><stop offset="0" stop-color="#cfffb4"/><stop offset="1" stop-color="#8ee388"/></linearGradient><linearGradient id="b" gradientUnits="userSpaceOnUse" x1="-14.22764" x2="518.77758208" xlink:href="#a" y1="71.88870336" y2="604.89392544"/><linearGradient id="c"><stop offset="0" stop-color="#8ee388" stop-opacity="0"/><stop offset="1" stop-color="#4b9345"/></linearGradient><linearGradient id="d" gradientTransform="matrix(-1.00392 0 0 1.00392 488.968 0)" gradientUnits="userSpaceOnUse" x1="408.872" x2="345.276" xlink:href="#c" y1="339.604" y2="135.567"/><linearGradient id="e" gradientTransform="matrix(-.99669 .11997 .11997 .99669 447.527 -30.506)" gradientUnits="userSpaceOnUse" x1="254.367" x2="269.779" xlink:href="#a" y1="203.148" y2="330.653"/><linearGradient id="f" gradientTransform="matrix(-.99669 .11997 .11997 .99669 447.527 -30.506)" gradientUnits="userSpaceOnUse" x1="248.312" x2="334.271" xlink:href="#c" y1="258.134" y2="84.056"/><linearGradient id="g" gradientUnits="userSpaceOnUse" x1="464.2004752" x2="421.2076012" xlink:href="#c" y1="384.76539096" y2="341.77251696"/><linearGradient id="h"><stop offset="0" stop-color="#827a74"/><stop offset="1" stop-color="#605b55"/></linearGradient><linearGradient id="i" gradientUnits="userSpaceOnUse" x1="427.33352104" x2="427.33352104" xlink:href="#h" y1="371.22752976" y2="351.51556056"/><linearGradient id="j"><stop offset="0" stop-color="#ffb92d"/><stop offset="1" stop-color="#f59500"/></linearGradient><linearGradient id="k" gradientUnits="userSpaceOnUse" x1="444.86597992" x2="549.1672444" xlink:href="#j" y1="129.32798616" y2="233.62925064"/><linearGradient id="l" gradientUnits="userSpaceOnUse" x1="471.55619704" x2="355.26611992" y1="156.99200568" y2="92.68490616"><stop offset="0" stop-color="#be3f45" stop-opacity="0"/><stop offset="1" stop-color="#be3f45"/></linearGradient><linearGradient id="m" gradientUnits="userSpaceOnUse" x1="268.9129372" x2="234.82081792" y1="18.13983048" y2="81.71607624"><stop offset="0" stop-color="#f2f2f2"/><stop offset="1" stop-color="#c3c3c3"/></linearGradient><linearGradient id="n" gradientUnits="userSpaceOnUse" x1="306.57098032" x2="318.5668204" xlink:href="#j" y1="80.80752864" y2="92.80336872"/><linearGradient id="o" gradientUnits="userSpaceOnUse" x1="331.07967928" x2="415.09774408" xlink:href="#h" y1="250.55935752" y2="334.57742232"/><linearGradient id="p" gradientUnits="userSpaceOnUse" x1="340.83778168" x2="362.13895624" xlink:href="#h" y1="268.41708648" y2="289.71826104"/><linearGradient id="q" gradientUnits="userSpaceOnUse" x1="358.93143184" x2="322.28232832" y1="236.0868468" y2="199.43774328"><stop offset="0" stop-color="#605b55" stop-opacity="0"/><stop offset="1" stop-color="#4c4843"/></linearGradient><linearGradient id="r" gradientUnits="userSpaceOnUse" x1="358.38931504" x2="503.77399768" xlink:href="#j" y1="137.7227652" y2="283.10744784"/><linearGradient id="s" gradientUnits="userSpaceOnUse" x1="441.52393024" x2="406.95595288" xlink:href="#j" y1="139.7506836" y2="139.7506836"/><linearGradient id="t" gradientUnits="userSpaceOnUse" x1="402.0176704" x2="367.44969304" xlink:href="#j" y1="139.7506836" y2="139.7506836"/><path d="m408.84375 318.03125v47.503906c0 61.730469-50.042969 111.773438-111.773438 111.773438h-13.398437c-26.160156 0-50.246094-9.035156-69.308594-24.152344-20.78125-16.480469-34.324219-40.269531-39.480469-66.292969-13.148437-66.332031-54.140624-107.171875-81.769531-127.886719-2.472656-1.859374-.015625-5.679687 2.703125-4.203124 22.941406 12.441406 53.929688 35.328124 72.195313 74.007812 1.617187 3.425781 6.726562 2.449219 6.96875-1.332031 3.988281-62.28125-38.019531-105.394531-84.246094-116.25-48.125-11.304688-67.085937-33.386719-73.519531-43.621094-1.234375-1.960937-4.195313-1.613281-4.914063.589844-37.078125 113.574219 16.507813 174.433593 69.980469 197.441406 31.054688 13.363281 56.480469 37.050781 72.984375 66.554687 20.914063 37.378907 59.769531 79.835938 128.40625 79.835938h13.398437c80.890626 0 146.464844-65.574219 146.464844-146.464844v-47.503906zm0 0" fill="url(#b)"/><path d="m15.699219 166.4375c3.339843 13.539062 17.714843 52.046875 77.417969 92.539062 30.09375 22.566407 76.046874 69.003907 84.597656 146.257813.332031 3.019531-.835938 6.019531-3.171875 7.960937-4.082031 3.402344-10.625 7.328126-14.230469 1.507813-2.832031-4.570313-1.777344-7.996094-3.640625-19.007813-1.90625-11.234374-11.800781-19.46875-23.191406-19.164062-57.390625 1.539062-170.9375-55.933594-121.183594-208.351562.5-1.527344 2.070313-2.144532 3.402344-1.742188zm0 0" fill="url(#d)"/><path d="m193.191406 313.449219c20.425782-11.625 89.132813-58.371094 57.441406-146.632813-.484374-1.347656-1.9375-2.085937-3.3125-1.6875-4.828124 1.394532-16.261718 5.136719-29.464843 12.457032-31.824219 17.644531-47.074219 55.035156-36.824219 89.953124 3.570312 12.164063 6.429688 26.777344 6.683594 42.8125.046875 2.773438 3.066406 4.46875 5.476562 3.097657zm0 0" fill="url(#e)"/><path d="m193.191406 313.449219c-1.0625.605469-2.242187.613281-3.234375.195312 9.554688-22.648437 15.066407-54.691406 19.476563-84.578125 4.964844-33.679687 31.757812-57.890625 39.132812-63.988281.921875.167969 1.730469.800781 2.066406 1.738281 31.691407 88.261719-37.015624 135.007813-57.441406 146.632813zm0 0" fill="url(#f)"/><path d="m408.84375 365.535156c0 3.210938-.144531 6.386719-.410156 9.53125l29.761718 29.761719c3.472657-12.507813 5.335938-25.679687 5.335938-39.292969v-47.503906h-34.691406v47.503906zm0 0" fill="url(#g)"/><path d="m431.261719 380.714844h-7.855469c-12.0625 0-21.835938-9.777344-21.835938-21.839844v-24.757812h51.53125v24.757812c0 12.0625-9.777343 21.839844-21.839843 21.839844zm0 0" fill="url(#i)"/><path d="m469.886719 223.347656h-26.566407v-155.167968h26.566407c12.53125 0 22.691406 10.160156 22.691406 22.695312v109.777344c0 12.535156-10.160156 22.695312-22.691406 22.695312zm0 0" fill="url(#k)"/><path d="m459.328125 68.613281-.140625-.433593h-15.867188v155.167968h26.566407c12.53125 0 22.691406-10.160156 22.691406-22.691406v-98.792969zm0 0" fill="url(#l)"/><path d="m328.757812 102.785156c-9.03125 9.03125-23.675781 9.03125-32.707031 0l-33.4375-33.4375c-14.890625-14.890625-34.6875-23.09375-55.746093-23.09375h-20.742188c-12.773438 0-23.128906-10.351562-23.128906-23.125 0-12.773437 10.355468-23.128906 23.128906-23.128906h20.742188c33.414062 0 64.828124 13.011719 88.457031 36.640625l33.4375 33.433594c9.027343 9.035156 9.027343 23.675781-.003907 32.710937zm0 0" fill="url(#m)"/><path d="m361.152344 62.878906-72.507813 72.511719-6.617187-6.621094c-8.613282-8.609375-8.613282-22.570312 0-31.179687l41.324218-41.328125c8.613282-8.613281 22.574219-8.613281 31.183594 0zm0 0" fill="url(#n)"/><path d="m283.859375 266.570312v49.21875c0 10.347657 8.386719 18.734376 18.730469 18.734376h120.480468v-112.1875h-94.980468c-24.429688 0-44.230469 19.804687-44.230469 44.234374zm115.097656 45.375h-86.085937c-2.707032 0-4.898438-2.195312-4.898438-4.902343v-35.140625c0-14.90625 12.082032-26.988282 26.984375-26.988282h64zm0 0" fill="url(#o)"/><path d="m359.058594 237.636719c-1.796875 26.804687-16.945313 49.945312-38.851563 62.84375-2.691406 1.585937-1.574219 5.773437 1.550781 5.78125h.113282c31.375 0 57.304687-23.253907 61.53125-53.460938-6.664063-6.894531-14.992188-12.164062-24.34375-15.164062zm0 0" fill="url(#p)"/><path d="m423.070312 258.554688v-36.21875h-94.980468c-16.464844 0-30.824219 9.007812-38.4375 22.359374l.308594.132813 19.183593 19.183594c3.375-11.054688 13.652344-19.097657 25.8125-19.097657h63.996094v18.136719zm0 0" fill="url(#q)"/><path d="m345.351562 65.050781-55.582031 55.582031c-14.308593 14.308594-22.347656 33.714844-22.347656 53.945313v40.410156c0 16.734375 13.570313 30.300781 30.304687 30.300781h40.042969c32.527344 0 58.894531 26.367188 58.894531 58.894532v25.335937c0 15.640625 12.675782 28.316407 28.316407 28.316407h6.035156c15.636719 0 28.3125-12.675782 28.3125-28.316407v-260.90625c0-14.308593-11.597656-25.910156-25.910156-25.910156h-34.121094c-20.230469 0-39.636719 8.039063-53.945313 22.347656zm0 0" fill="url(#r)"/><path d="m430.007812 215.347656c-7.210937 0-13.054687-5.84375-13.054687-13.054687v-125.085938c0-7.210937 5.84375-13.054687 13.054687-13.054687 7.207032 0 13.050782 5.84375 13.050782 13.054687v125.085938c0 7.210937-5.84375 13.054687-13.050782 13.054687zm0 0" fill="url(#s)"/><path d="m390.5 215.347656c-7.207031 0-13.054688-5.84375-13.054688-13.054687v-125.085938c0-7.210937 5.847657-13.054687 13.054688-13.054687s13.050781 5.84375 13.050781 13.054687v125.085938c.003907 7.210937-5.839843 13.054687-13.050781 13.054687zm0 0" fill="url(#t)"/></svg>