<svg id="Calque_1" data-name="Calque 1" xmlns="http://www.w3.org/2000/svg" xmlns:xlink="http://www.w3.org/1999/xlink" viewBox="0 0 167.41 192.73"><defs><linearGradient id="Dégradé_sans_nom_2" x1="521.23" y1="309.45" x2="200.76" y2="308.04" gradientUnits="userSpaceOnUse"><stop offset="0" stop-color="#e06827"/><stop offset="0.09" stop-color="#e47e46"/><stop offset="0.27" stop-color="#eca47e"/><stop offset="0.44" stop-color="#f3c5ac"/><stop offset="0.6" stop-color="#f8ded0"/><stop offset="0.75" stop-color="#fcf0ea"/><stop offset="0.89" stop-color="#fefbfa"/><stop offset="1" stop-color="#fff"/></linearGradient></defs><path d="M394.55,297.38l2.38,29-27-3.27Zm48.34-50.45-47,49.1,2.5,30.54L472,335.49ZM336.59,355.86l30.35-31.68-30.16-3.65Zm60.46-28-28.37-3.43-31.39,32.77,65.3,38.16Zm46.94-82,29.57,89.88,30,3.64.41-78.05-48-28ZM472.51,337l-74-9,5.59,68.19,15.73,9.19,63.34-36.13Zm-104.36-14,26.25-27.4-5.31-64.79-52,29.65-.31,58.74ZM474,337.14l10.33,31.39,19.12-10.9.09-16.91ZM436,221.53l7.49,22.75,11.29-11.78Zm-40.31,72.64,46.71-48.74-8.22-25-13.38-7.82L390.43,230Z" transform="translate(-336.59 -212.64)" fill="url(#Dégradé_sans_nom_2)"/></svg>